<?xml version="1.0" standalone="no"?>
<!DOCTYPE svg PUBLIC "-//W3C//DTD SVG 20010904//EN"
 "http://www.w3.org/TR/2001/REC-SVG-20010904/DTD/svg10.dtd">
<svg version="1.0" xmlns="http://www.w3.org/2000/svg"
 width="340.000000pt" height="340.000000pt" viewBox="0 0 340.000000 340.000000"
 preserveAspectRatio="xMidYMid meet">
<metadata>
Created by potrace 1.11, written by Peter Selinger 2001-2013
</metadata>
<g transform="translate(0.000000,340.000000) scale(0.100000,-0.100000)"
fill="#000000" stroke="none">
<path d="M2 3073 l1 -58 401 -1 c394 -1 402 -1 461 -24 81 -32 164 -114 193
-193 38 -99 32 -162 -36 -402 -33 -115 -117 -417 -187 -670 -69 -253 -131
-473 -136 -490 -12 -38 -40 -71 311 370 167 209 316 396 331 415 16 19 123
153 239 298 115 145 222 273 237 286 48 40 194 132 293 184 211 112 411 175
690 218 25 4 169 7 320 8 l275 1 3 58 3 57 -658 0 c-615 0 -660 -1 -673 -18
-8 -9 -44 -53 -78 -97 -35 -44 -71 -89 -80 -100 -26 -31 -509 -635 -687 -860
-87 -110 -161 -202 -165 -205 -3 -3 -17 -21 -32 -40 -50 -65 -80 -96 -74 -76
4 11 34 119 67 240 33 122 64 235 70 251 11 35 62 221 143 520 32 116 66 237
76 270 9 33 20 72 24 88 l6 27 -669 0 -669 0 0 -57z"/>
<path d="M2369 2656 c-2 -2 -29 -6 -59 -10 -30 -3 -82 -13 -115 -21 -33 -8
-67 -17 -75 -19 -32 -8 -150 -59 -155 -66 -4 -6 109 -302 122 -319 2 -2 33 25
70 60 135 129 239 186 413 227 14 3 54 6 90 6 58 1 76 -4 160 -46 220 -108
374 -302 440 -555 20 -77 25 -127 23 -238 -1 -139 -33 -266 -101 -408 -61
-127 -102 -191 -201 -315 -155 -192 -328 -323 -561 -423 -93 -40 -258 -93
-324 -103 -21 -4 -41 -8 -45 -10 -3 -2 -31 -7 -61 -10 -30 -4 -84 -10 -120
-15 -72 -9 -303 -7 -365 4 -22 3 -56 8 -75 11 -211 28 -540 158 -757 299 -86
56 -193 135 -223 164 -12 12 -19 9 -47 -24 -18 -21 -33 -44 -33 -50 0 -24 251
-199 395 -276 33 -18 67 -36 75 -40 24 -13 130 -59 136 -59 3 0 20 -6 37 -14
118 -52 298 -98 474 -123 104 -14 419 -8 523 11 168 30 357 83 432 122 15 8
30 14 33 14 12 -1 173 84 237 126 181 118 339 279 467 474 97 149 155 276 192
422 24 95 34 312 18 393 -6 28 -12 61 -15 75 -11 59 -50 161 -92 244 -119 233
-308 389 -557 461 -70 21 -119 28 -221 31 -71 2 -132 3 -135 0z"/>
</g>
</svg>
