<svg width="947" height="654" viewBox="0 0 947 654" fill="none" xmlns="http://www.w3.org/2000/svg">
<g clip-path="url(#clip0)">
<path opacity="0.1" d="M7.27338 344.3C24.0121 316.944 61.8652 321.712 88.7086 335.993C115.552 350.273 142.337 371.589 171.879 367.493C196.788 364.038 217.213 342.306 228.248 317.235C239.282 292.164 242.52 263.894 245.626 236.207C249.528 201.422 253.428 166.614 257.325 131.785C258.753 119.05 260.438 105.609 267.595 95.5326C277.052 82.2411 294.389 78.154 309.218 82.1498C324.047 86.1455 336.692 96.8618 347.511 108.816C382.168 147.095 401.804 198.841 432.101 241.44C438.271 250.113 445.237 258.686 454.453 262.873C467.738 268.895 482.99 264.634 495.968 257.93C538.313 236.09 566.758 191.522 594.714 149.936C608.315 129.725 624.896 108.11 647.521 105.908C671.326 103.541 691.992 123.835 705.982 145.326C750.884 214.475 760.508 308.878 814.751 369.188C821.484 376.665 828.915 383.576 837.476 388.22C840.299 389.746 843.242 391.038 846.277 392.083C893.604 408.473 909.379 474.266 874.374 513.276C873.618 514.107 872.846 514.938 872.066 515.768C866.868 521.259 860.981 526.451 853.957 528.088C847.423 529.6 840.672 527.855 834.196 525.97C792.798 513.883 751.897 495.407 709.096 496.305C667.448 497.135 627.943 516.383 586.76 523.311C559.07 527.972 530.898 527.041 502.901 526.036C409.653 522.68 316.425 518.776 223.216 514.323C176.952 512.196 130.672 510.169 84.416 507.802C48.7798 505.949 26.0795 501.87 21.9447 460.492C18.3246 424.256 -14.1897 379.389 7.27338 344.3Z" fill="#561262"/>
<path d="M655.849 654C779.655 654 880.02 639.967 880.02 622.657C880.02 605.347 779.655 591.314 655.849 591.314C532.043 591.314 431.678 605.347 431.678 622.657C431.678 639.967 532.043 654 655.849 654Z" fill="#30374E"/>
<path d="M123.498 487.441C123.498 487.441 134.458 484.949 141.64 492.317C141.64 492.317 137.023 496.471 126.163 491.869L123.498 487.441Z" fill="#561262"/>
<path d="M122.286 487.333C122.286 487.333 115.793 496.537 119.911 505.982C119.911 505.982 125.524 503.282 125.366 491.486L122.286 487.333Z" fill="#561262"/>
<path d="M114.979 473.46C114.979 473.46 118.873 465.028 137.397 475.221C137.397 475.221 135.404 480.853 127.533 480.936C119.662 481.02 117.304 477.605 114.979 473.46Z" fill="#561262"/>
<path d="M113.8 472.945C113.8 472.945 104.526 472.513 105.049 493.647C105.049 493.647 110.969 494.477 114.664 487.516C118.358 480.554 116.399 476.957 113.8 472.945Z" fill="#561262"/>
<path d="M107.34 456.496C107.34 456.496 111.492 441.809 130.979 450.781C130.979 450.781 127.575 464.23 109.557 461.281L107.34 456.496Z" fill="#561262"/>
<path d="M100.109 435.446C100.109 435.446 108.893 420.294 127.085 432.588C127.085 432.588 121.945 446.603 101.935 440.522L100.109 435.446Z" fill="#561262"/>
<path d="M96.6711 415.176C96.6711 415.176 107.158 401.096 125.2 413.258C125.2 413.258 115.187 425.668 96.8953 418.574L96.6711 415.176Z" fill="#561262"/>
<path d="M93.5658 395.472C93.5658 395.472 104.16 380.801 121.455 392.855C121.455 392.855 109.267 406.005 93.7817 398.728L93.5658 395.472Z" fill="#561262"/>
<path d="M93.4164 377.811C93.4164 377.811 104.335 359.095 120.525 370.193C120.525 370.193 108.553 386.45 93.6489 381.209L93.4164 377.811Z" fill="#561262"/>
<path d="M94.886 357.06C94.886 357.06 106.51 338.452 122.36 351.095C122.36 351.095 108.162 367.502 95.0687 360.358L94.886 357.06Z" fill="#561262"/>
<path d="M97.8999 338.401C97.8999 338.401 112.015 320.699 125.756 326.464C125.756 326.464 111.077 345.238 97.5263 342.879L97.8999 338.401Z" fill="#561262"/>
<path d="M102.051 320.625C102.051 320.625 118.275 299.026 128.928 305.157C128.928 305.157 117.047 321.846 101.047 324.554L102.051 320.625Z" fill="#561262"/>
<path d="M108.378 299.906C108.378 299.906 122.634 282.195 134.117 285.584C134.117 285.584 122.12 303.769 106.635 305.256L108.378 299.906Z" fill="#561262"/>
<path d="M114.066 280.542C114.066 280.542 129.991 263.429 137.571 265.739C137.571 265.739 126.487 284.314 113.559 284.139L114.066 280.542Z" fill="#561262"/>
<path d="M119.687 262.632C119.687 262.632 133.046 242.57 141.125 243.525C141.125 243.525 133.395 261.128 119.82 264.567L119.687 262.632Z" fill="#561262"/>
<path d="M125.491 238.616C125.491 238.616 137.439 223.115 144.43 222.683C144.43 222.683 135.537 242.902 125.275 243.451L125.491 238.616Z" fill="#561262"/>
<path d="M128.812 222.658L139.257 191.348C139.257 191.348 141.748 218.845 127.633 228.415L128.812 222.658Z" fill="#561262"/>
<path d="M131.626 188.714C131.626 188.714 131.992 163.137 130.522 161.159C130.522 161.159 140.876 181.711 132.299 199.962L131.626 188.714Z" fill="#561262"/>
<path d="M106.809 456.189C106.809 456.189 93.3084 449.028 86.2426 469.256C86.2426 469.256 98.2819 476.135 108.661 461.107L106.809 456.189Z" fill="#561262"/>
<path d="M99.6352 434.657C99.6352 434.657 83.2618 428.468 76.9267 449.51C76.9267 449.51 89.7713 457.111 101.429 439.741L99.6352 434.657Z" fill="#561262"/>
<path d="M96.0152 416.447C96.0152 416.447 83.7351 403.895 67.4863 418.383C67.4863 418.383 79.0606 429.34 96.2393 419.87L96.0152 416.447Z" fill="#561262"/>
<path d="M93.1756 395.506C93.1756 395.506 80.7212 382.372 65.1864 396.635C65.1864 396.635 79.0191 408.041 93.4164 398.754L93.1756 395.506Z" fill="#561262"/>
<path d="M93.4496 378.309C93.4496 378.309 84.0175 358.812 67.0214 368.615C67.0214 368.615 77.6989 385.753 92.9597 381.69L93.4496 378.309Z" fill="#561262"/>
<path d="M95.8574 356.91C95.8574 356.91 86.4502 337.056 69.2382 347.714C69.2382 347.714 81.4103 365.666 95.2596 360.117L95.8574 356.91Z" fill="#561262"/>
<path d="M99.6187 338.385C99.6187 338.385 94.9358 316.246 80.0652 315.233C80.0652 315.233 84.7813 338.601 97.9249 342.547L99.6187 338.385Z" fill="#561262"/>
<path d="M102.433 320.641C102.433 320.641 99.3861 293.8 87.1061 293.676C87.1061 293.676 88.8912 314.087 101.312 324.537L102.433 320.641Z" fill="#561262"/>
<path d="M109.599 299.05C109.599 299.05 104.443 276.903 92.6027 274.959C92.6027 274.959 95.5087 296.558 108.818 304.633L109.599 299.05Z" fill="#561262"/>
<path d="M115.461 280.609C115.461 280.609 113.8 257.29 106.41 254.341C106.41 254.341 103.413 275.757 113.593 283.732L115.461 280.609Z" fill="#561262"/>
<path d="M120.218 262.341C120.218 262.341 117.603 238.375 109.997 235.492C109.997 235.492 108.752 254.674 119.214 263.986L120.218 262.341Z" fill="#561262"/>
<path d="M126.653 240.46C126.653 240.46 125.291 220.93 119.72 216.693C119.72 216.693 115.917 238.449 124.162 244.572L126.653 240.46Z" fill="#561262"/>
<path d="M128.098 221.735L120.791 189.553C120.791 189.553 115.618 216.668 128.737 227.584L128.098 221.735Z" fill="#561262"/>
<path d="M126.96 189.337C126.96 189.337 112.322 168.337 112.438 165.895C112.438 165.895 115.378 188.723 132.706 199.032L126.96 189.337Z" fill="#561262"/>
<path d="M128.098 182.783C128.098 182.783 113.601 152.553 107.814 150.385C107.814 150.385 126.155 158.219 129.078 181.786L128.098 182.783Z" fill="#561262"/>
<path d="M125.225 243.609L124.395 243.401C132.573 208.511 133.727 186.513 127.633 181.462L128.197 180.781C134.624 186.131 133.611 207.863 125.225 243.609Z" fill="#444053"/>
<path d="M101.744 325.567L100.457 325.21C101.362 322.003 102.342 318.739 103.388 315.524C112.521 287.512 120.11 261.527 124.768 241.64L125.823 241.017C121.156 260.954 113.775 287.894 104.659 315.931C103.621 319.137 102.641 322.377 101.744 325.567Z" fill="#444053"/>
<path d="M140.81 511.98C140.627 511.806 122.36 493.813 108.328 461.938C100.107 443.281 94.8915 423.438 92.8767 403.148C90.3858 377.786 93.79 349.043 101.18 322.651L102.242 323.748C85.6365 382.986 97.1029 432.024 109.906 461.149C123.797 492.716 141.856 510.535 142.038 510.71L140.81 511.98Z" fill="#444053"/>
<path d="M160.919 417.104C160.919 417.104 167.562 415.584 171.896 420.053C171.896 420.053 169.098 422.545 162.538 419.779L160.919 417.104Z" fill="#561262"/>
<path d="M160.197 417.046C160.197 417.046 156.278 422.612 158.769 428.319C158.769 428.319 162.156 426.657 162.09 419.555L160.197 417.046Z" fill="#561262"/>
<path d="M155.78 408.647C155.78 408.647 158.129 403.555 169.313 409.719C169.313 409.719 168.11 413.116 163.352 413.166C158.594 413.216 157.199 411.156 155.78 408.647Z" fill="#561262"/>
<path d="M155.066 408.34C155.066 408.34 149.453 408.082 149.768 420.85C149.768 420.85 153.347 421.349 155.58 417.145C157.814 412.942 156.635 410.765 155.066 408.34Z" fill="#561262"/>
<path d="M151.138 398.396C151.138 398.396 153.687 389.516 165.444 394.924C165.444 394.924 163.393 403.057 152.5 401.271L151.138 398.396Z" fill="#561262"/>
<path d="M146.788 385.67C146.788 385.67 152.093 376.532 163.095 383.942C163.095 383.942 159.981 392.415 147.892 388.735L146.788 385.67Z" fill="#561262"/>
<path d="M144.704 373.416C144.704 373.416 151.047 364.901 161.949 372.253C161.949 372.253 155.904 379.73 144.845 375.468L144.704 373.416Z" fill="#561262"/>
<path d="M142.827 361.504C142.827 361.504 149.237 352.632 159.69 359.925C159.69 359.925 152.326 367.875 142.96 363.473L142.827 361.504Z" fill="#561262"/>
<path d="M142.744 350.821C142.744 350.821 149.386 339.515 159.126 346.219C159.126 346.219 151.886 356.046 142.877 352.865L142.744 350.821Z" fill="#561262"/>
<path d="M143.608 338.285C143.608 338.285 150.657 327.029 160.214 334.647C160.214 334.647 151.628 344.566 143.707 340.246L143.608 338.285Z" fill="#561262"/>
<path d="M145.451 327.004C145.451 327.004 153.978 316.305 162.289 319.794C162.289 319.794 153.413 331.141 145.243 329.712L145.451 327.004Z" fill="#561262"/>
<path d="M147.958 316.255C147.958 316.255 157.764 303.204 164.207 306.901C164.207 306.901 157.025 316.994 147.352 318.63L147.958 316.255Z" fill="#561262"/>
<path d="M151.786 303.744C151.786 303.744 160.404 293.036 167.362 295.088C167.362 295.088 160.114 306.078 150.756 306.976L151.786 303.744Z" fill="#561262"/>
<path d="M155.223 292.023C155.223 292.023 164.847 281.68 169.43 283.076C169.43 283.076 162.738 294.299 154.916 294.199L155.223 292.023Z" fill="#561262"/>
<path d="M158.619 281.198C158.619 281.198 166.698 269.069 171.58 269.634C171.58 269.634 166.914 280.276 158.702 282.361L158.619 281.198Z" fill="#561262"/>
<path d="M162.14 266.677C162.14 266.677 169.363 257.307 173.59 257.041C173.59 257.041 168.209 269.269 162.007 269.577L162.14 266.677Z" fill="#561262"/>
<path d="M164.141 257.024L170.443 238.117C170.443 238.117 171.937 254.732 163.394 260.547L164.141 257.024Z" fill="#561262"/>
<path d="M165.843 236.506C165.843 236.506 166.059 221.046 165.17 219.85C165.17 219.85 171.431 232.269 166.241 243.309L165.843 236.506Z" fill="#561262"/>
<path d="M150.831 398.213C150.831 398.213 142.678 393.877 138.377 406.105C138.377 406.105 145.658 410.259 151.935 401.187L150.831 398.213Z" fill="#561262"/>
<path d="M146.505 385.154C146.505 385.154 136.6 381.416 132.772 394.135C132.772 394.135 140.535 398.729 147.585 388.236L146.505 385.154Z" fill="#561262"/>
<path d="M144.305 374.181C144.305 374.181 136.891 366.596 127.06 375.344C127.06 375.344 134.059 381.99 144.446 376.241L144.305 374.181Z" fill="#561262"/>
<path d="M142.595 361.521C142.595 361.521 135.064 353.587 125.673 362.21C125.673 362.21 134.034 369.097 142.728 363.489L142.595 361.521Z" fill="#561262"/>
<path d="M142.761 351.095C142.761 351.095 137.057 339.307 126.778 345.23C126.778 345.23 133.237 355.589 142.462 353.138L142.761 351.095Z" fill="#561262"/>
<path d="M144.214 338.177C144.214 338.177 138.526 326.173 128.098 332.62C128.098 332.62 135.454 343.477 143.832 340.096L144.214 338.177Z" fill="#561262"/>
<path d="M146.489 327.005C146.489 327.005 143.657 313.613 134.665 313.007C134.665 313.007 137.513 327.129 145.459 329.513L146.489 327.005Z" fill="#561262"/>
<path d="M148.191 316.263C148.191 316.263 146.364 300.039 138.892 299.956C138.892 299.956 139.971 312.301 147.477 318.622L148.191 316.263Z" fill="#561262"/>
<path d="M152.517 303.212C152.517 303.212 149.403 289.821 142.246 288.642C142.246 288.642 144.006 301.692 152.052 306.577L152.517 303.212Z" fill="#561262"/>
<path d="M156.062 292.064C156.062 292.064 155.041 277.942 150.599 276.181C150.599 276.181 148.78 289.132 154.933 293.95L156.062 292.064Z" fill="#561262"/>
<path d="M158.943 281.015C158.943 281.015 157.366 266.528 152.766 264.783C152.766 264.783 152.01 276.413 158.337 282.012L158.943 281.015Z" fill="#561262"/>
<path d="M162.829 267.79C162.829 267.79 161.999 255.986 158.677 253.419C158.677 253.419 156.378 266.577 161.359 270.274L162.829 267.79Z" fill="#561262"/>
<path d="M163.726 256.468L159.308 237.012C159.308 237.012 156.178 253.411 164.108 260.007L163.726 256.468Z" fill="#561262"/>
<path d="M163.02 236.888C163.02 236.888 154.177 224.203 154.244 222.716C154.244 222.716 156.012 236.514 166.491 242.744L163.02 236.888Z" fill="#561262"/>
<path d="M163.684 232.917C163.684 232.917 154.916 214.641 151.421 213.354C151.421 213.354 162.513 218.089 164.274 232.344L163.684 232.917Z" fill="#561262"/>
<path d="M161.965 269.685L161.442 269.56C166.424 248.468 167.088 235.168 163.402 232.119L163.742 231.704C167.653 234.944 167.038 248.086 161.965 269.685Z" fill="#444053"/>
<path d="M147.776 319.245L146.995 319.021C147.543 317.086 148.141 315.117 148.772 313.206C154.277 296.268 158.877 280.559 161.691 268.538L162.331 268.156C159.508 280.202 155.049 296.5 149.536 313.455C148.905 315.374 148.315 317.31 147.776 319.245Z" fill="#444053"/>
<path d="M171.389 431.941C171.281 431.833 160.238 420.959 151.753 401.686C146.786 390.407 143.634 378.413 142.412 366.148C140.893 350.813 142.968 333.434 147.444 317.476L148.083 318.141C138.045 353.953 144.978 383.601 152.716 401.213C161.119 420.319 172.029 431.06 172.145 431.168L171.389 431.941Z" fill="#444053"/>
<path d="M196.365 473.477C194.234 473.855 192.147 474.451 190.137 475.254C145.351 493.148 146.099 610.28 146.099 610.28H132.913C132.913 610.28 128.762 560.013 110.67 488.297C94.3712 423.775 161.218 365.948 174.793 354.983C176.321 353.762 177.168 353.114 177.168 353.114C244.497 377.869 196.365 473.477 196.365 473.477Z" fill="#AFC0E0"/>
<path opacity="0.2" d="M182.067 355.149C180.514 354.435 178.912 353.753 177.21 353.13C177.21 353.13 176.379 353.778 174.835 354.999C161.26 365.965 94.4127 423.791 110.711 488.313C128.803 560.029 132.913 610.279 132.913 610.279H140.328C140.328 610.279 136.218 560.013 118.084 488.297C101.852 424.074 168.052 366.463 182.067 355.149Z" fill="white"/>
<path d="M418.501 488.313C400.368 560.029 396.283 610.28 396.283 610.28H383.073C383.073 610.28 383.903 487.865 335.97 474.199C334.932 473.888 333.875 473.641 332.807 473.46C332.807 473.46 284.65 377.853 352.003 353.114C352.003 353.114 352.684 353.621 353.913 354.609C366.392 364.603 434.983 423.044 418.501 488.313Z" fill="#AFC0E0"/>
<path opacity="0.1" d="M196.364 473.477C194.234 473.855 192.147 474.451 190.137 475.254C182.04 435.607 176.911 395.411 174.793 354.999C176.321 353.778 177.168 353.13 177.168 353.13C244.497 377.869 196.364 473.477 196.364 473.477Z" fill="black"/>
<path opacity="0.1" d="M353.938 354.626C351.192 394.919 345.192 434.924 335.995 474.249C334.957 473.938 333.9 473.691 332.832 473.51C332.832 473.51 284.675 377.902 352.028 353.164C352.003 353.13 352.684 353.637 353.938 354.626Z" fill="black"/>
<path d="M329.286 491.603C324.637 509.956 319.187 528.786 312.938 548.092C312.938 548.092 283.28 579.003 211.642 548.092C211.642 548.092 204.485 527.905 196.614 493.588C179.285 418.134 158.503 274.345 202.783 126.651C215.969 82.2518 234.71 39.6975 258.562 0C258.562 0 296.39 43.4549 324.155 126.626C351.92 209.798 369.589 332.703 329.286 491.603Z" fill="#E3E8F4"/>
<path d="M264.581 303.403C297.428 303.403 324.055 276.762 324.055 243.899C324.055 211.036 297.428 184.395 264.581 184.395C231.735 184.395 205.107 211.036 205.107 243.899C205.107 276.762 231.735 303.403 264.581 303.403Z" fill="#AFC0E0"/>
<path d="M306.76 243.932C306.76 251.923 304.492 259.75 300.22 266.503C295.948 273.255 289.847 278.655 282.628 282.074C275.409 285.493 267.367 286.791 259.44 285.817C251.512 284.843 244.024 281.636 237.846 276.571C234.831 274.086 232.171 271.199 229.942 267.99C228.94 266.556 228.031 265.06 227.218 263.512C224.055 257.471 222.405 250.752 222.411 243.932C222.411 243.591 222.411 243.259 222.411 242.927C222.627 233.902 225.727 225.185 231.255 218.051C236.783 210.917 244.45 205.742 253.132 203.285C256.447 202.371 259.858 201.852 263.294 201.74H264.556C270.097 201.736 275.584 202.825 280.703 204.944C285.823 207.063 290.475 210.17 294.395 214.088C298.314 218.006 301.423 222.659 303.545 227.779C305.667 232.9 306.759 238.389 306.76 243.932Z" fill="#561262"/>
<path d="M324.147 126.626C256.669 158.95 202.741 126.626 202.741 126.626C215.942 82.2334 234.698 39.6876 258.562 0C258.562 0 296.39 43.4549 324.147 126.626Z" fill="#AFC0E0"/>
<path d="M329.286 491.603C326.131 504.03 322.616 516.671 318.741 529.525C316.904 535.656 314.966 541.836 312.929 548.066C312.929 548.066 283.271 578.978 211.634 548.066C211.634 548.066 209.309 541.512 205.822 529.525C203.214 520.47 199.968 508.333 196.58 493.563C196.58 493.563 223.249 504.952 261.103 504.952C284.487 505.032 307.657 500.496 329.286 491.603Z" fill="#AFC0E0"/>
<path d="M318.742 529.525C316.904 535.656 314.966 541.836 312.929 548.067C312.929 548.067 283.271 578.978 211.634 548.067C211.634 548.067 209.309 541.512 205.822 529.525C205.813 529.525 278.829 550.542 318.742 529.525Z" fill="#E3E8F4"/>
<path opacity="0.2" d="M253.157 203.227L253.065 203.294L222.427 242.869C222.427 243.201 222.427 243.534 222.427 243.874C222.422 250.694 224.072 257.413 227.235 263.454L263.336 201.682L253.157 203.227Z" fill="white"/>
<path opacity="0.2" d="M262.937 238.948L237.846 276.538C234.831 274.054 232.171 271.166 229.942 267.957L259.832 235.858L262.937 238.948Z" fill="white"/>
<path opacity="0.2" d="M227.667 548.075C227.667 548.075 220.509 527.88 212.638 493.572C195.31 418.109 174.528 274.32 218.807 126.626C230.71 86.6639 247.102 48.1802 267.67 11.9125C262.049 4.02898 258.537 0.00830078 258.537 0.00830078C234.681 39.6942 215.934 82.2373 202.741 126.626C158.461 274.32 179.244 418.109 196.572 493.572C204.443 527.88 211.6 548.075 211.6 548.075C239.905 560.278 261.651 562.837 277.609 561.475C263.975 560.436 247.419 556.59 227.667 548.075Z" fill="white"/>
<path d="M777.969 605.536C777.969 605.536 816.777 557.221 814.203 508.832C812.995 488.546 818.396 468.416 829.596 451.463C834.987 443.443 841.101 435.935 847.863 429.033" stroke="#535461" stroke-width="2" stroke-miterlimit="10"/>
<path d="M846.393 398.563C843.62 405.3 847.772 429.864 847.772 429.864C847.772 429.864 868.006 415.343 870.779 408.606C872.11 405.371 872.102 401.739 870.757 398.509C869.412 395.28 866.839 392.717 863.605 391.385C860.372 390.053 856.741 390.061 853.514 391.407C850.286 392.753 847.724 395.327 846.393 398.563Z" fill="#561262"/>
<path d="M810.873 427.588C812.21 434.748 829.04 453.107 829.04 453.107C829.04 453.107 838.173 429.922 836.804 422.753C836.163 419.312 834.182 416.268 831.298 414.288C828.413 412.309 824.861 411.557 821.422 412.198C817.984 412.84 814.941 414.821 812.962 417.707C810.984 420.593 810.233 424.147 810.873 427.588Z" fill="#561262"/>
<path d="M785.516 491.736C790.282 497.243 814.078 504.595 814.078 504.595C814.078 504.595 810.226 479.981 805.46 474.465C803.147 471.907 799.924 470.358 796.483 470.149C793.042 469.94 789.656 471.087 787.05 473.345C784.445 475.604 782.827 478.793 782.543 482.231C782.259 485.668 783.332 489.08 785.533 491.736H785.516Z" fill="#561262"/>
<path d="M777.255 544.594C781.016 550.833 803.226 562.098 803.226 562.098C803.226 562.098 803.592 537.176 799.83 530.946C798.935 529.463 797.756 528.171 796.361 527.143C794.966 526.116 793.383 525.374 791.701 524.959C790.02 524.544 788.273 524.464 786.561 524.725C784.848 524.985 783.204 525.58 781.722 526.476C780.239 527.373 778.948 528.552 777.921 529.948C776.894 531.343 776.152 532.927 775.738 534.61C775.323 536.292 775.243 538.04 775.504 539.753C775.764 541.466 776.359 543.111 777.255 544.594Z" fill="#561262"/>
<path d="M854.107 464.961C847.348 467.661 822.838 463.258 822.838 463.258C822.838 463.258 837.551 443.163 844.318 440.455C847.566 439.156 851.196 439.202 854.411 440.581C857.626 441.961 860.161 444.561 861.459 447.811C862.757 451.061 862.712 454.693 861.333 457.91C859.954 461.126 857.355 463.663 854.107 464.961Z" fill="#561262"/>
<path d="M843.662 526.659C836.405 527.216 814.336 515.677 814.336 515.677C814.336 515.677 834.379 500.898 841.644 500.342C845.09 500.15 848.474 501.316 851.07 503.591C853.667 505.866 855.269 509.069 855.533 512.512C855.797 515.955 854.702 519.364 852.483 522.009C850.263 524.654 847.097 526.323 843.662 526.659Z" fill="#561262"/>
<path d="M825.287 585.225C818.221 587.002 794.525 579.36 794.525 579.36C794.525 579.36 811.786 561.408 818.852 559.639C820.531 559.216 822.277 559.128 823.99 559.38C825.703 559.633 827.35 560.22 828.836 561.109C830.322 561.998 831.619 563.172 832.652 564.562C833.684 565.952 834.434 567.533 834.856 569.213C835.279 570.893 835.366 572.639 835.114 574.353C834.862 576.067 834.275 577.715 833.386 579.201C832.497 580.688 831.325 581.985 829.935 583.019C828.546 584.052 826.966 584.802 825.287 585.225Z" fill="#561262"/>
<path opacity="0.25" d="M846.393 398.563C843.62 405.3 847.772 429.864 847.772 429.864C847.772 429.864 868.006 415.343 870.779 408.606C872.11 405.371 872.102 401.739 870.757 398.509C869.412 395.28 866.839 392.717 863.605 391.385C860.372 390.053 856.741 390.061 853.514 391.407C850.286 392.753 847.724 395.327 846.393 398.563Z" fill="black"/>
<path opacity="0.25" d="M810.873 427.588C812.21 434.748 829.04 453.107 829.04 453.107C829.04 453.107 838.173 429.922 836.804 422.753C836.163 419.312 834.182 416.268 831.298 414.288C828.413 412.309 824.861 411.557 821.422 412.198C817.984 412.84 814.941 414.821 812.962 417.707C810.984 420.593 810.233 424.147 810.873 427.588Z" fill="black"/>
<path opacity="0.25" d="M785.516 491.736C790.282 497.243 814.078 504.595 814.078 504.595C814.078 504.595 810.226 479.981 805.46 474.465C803.147 471.907 799.924 470.358 796.483 470.149C793.042 469.94 789.656 471.087 787.05 473.345C784.445 475.604 782.827 478.793 782.543 482.231C782.259 485.668 783.332 489.08 785.533 491.736H785.516Z" fill="black"/>
<path opacity="0.25" d="M777.255 544.594C781.016 550.833 803.226 562.098 803.226 562.098C803.226 562.098 803.592 537.176 799.83 530.946C798.935 529.463 797.756 528.171 796.361 527.143C794.966 526.116 793.383 525.374 791.701 524.959C790.02 524.544 788.273 524.464 786.561 524.725C784.848 524.985 783.204 525.58 781.722 526.476C780.239 527.373 778.948 528.552 777.921 529.948C776.894 531.343 776.152 532.927 775.738 534.61C775.323 536.292 775.243 538.04 775.504 539.753C775.764 541.466 776.359 543.111 777.255 544.594Z" fill="black"/>
<path opacity="0.25" d="M854.107 464.961C847.348 467.661 822.838 463.258 822.838 463.258C822.838 463.258 837.551 443.163 844.318 440.455C847.566 439.156 851.196 439.202 854.411 440.581C857.626 441.961 860.161 444.561 861.459 447.811C862.757 451.061 862.712 454.693 861.333 457.91C859.954 461.126 857.355 463.663 854.107 464.961Z" fill="black"/>
<path opacity="0.25" d="M843.662 526.659C836.405 527.216 814.336 515.677 814.336 515.677C814.336 515.677 834.379 500.898 841.644 500.342C845.09 500.15 848.474 501.316 851.07 503.591C853.667 505.866 855.269 509.069 855.533 512.512C855.797 515.955 854.702 519.364 852.483 522.009C850.263 524.654 847.097 526.323 843.662 526.659Z" fill="black"/>
<path opacity="0.25" d="M825.287 585.225C818.221 587.002 794.525 579.36 794.525 579.36C794.525 579.36 811.786 561.408 818.852 559.639C820.531 559.216 822.277 559.128 823.99 559.38C825.703 559.633 827.35 560.22 828.836 561.109C830.322 561.998 831.619 563.172 832.652 564.562C833.684 565.952 834.434 567.533 834.856 569.213C835.279 570.893 835.366 572.639 835.114 574.353C834.862 576.067 834.275 577.715 833.386 579.201C832.497 580.688 831.325 581.985 829.935 583.019C828.546 584.052 826.966 584.802 825.287 585.225Z" fill="black"/>
<path d="M778.317 603.517C778.317 603.517 833.366 575.073 850.611 529.799C857.72 510.759 870.814 494.543 887.925 483.586C896.086 478.444 904.702 474.061 913.664 470.494" stroke="#535461" stroke-width="2" stroke-miterlimit="10"/>
<path d="M924.698 442.025C919.434 447.068 913.282 471.209 913.282 471.209C913.282 471.209 937.659 466.133 942.923 461.099C945.456 458.681 946.924 455.355 947.006 451.854C947.088 448.352 945.776 444.962 943.359 442.428C940.942 439.895 937.619 438.425 934.119 438.343C930.619 438.262 927.231 439.574 924.698 441.992V442.025Z" fill="#561262"/>
<path d="M880.477 454.162C878.816 461.257 886.745 484.899 886.745 484.899C886.745 484.899 904.423 467.396 906.133 460.26C906.928 456.861 906.343 453.285 904.508 450.316C902.673 447.347 899.736 445.227 896.341 444.421C892.947 443.614 889.371 444.186 886.397 446.012C883.424 447.838 881.295 450.769 880.477 454.162Z" fill="#561262"/>
<path d="M831.307 502.527C833.432 509.497 852.214 525.862 852.214 525.862C852.214 525.862 858.665 501.771 856.539 494.834C856.035 493.177 855.208 491.635 854.108 490.297C853.008 488.958 851.654 487.85 850.126 487.035C848.597 486.22 846.924 485.715 845.2 485.547C843.476 485.379 841.736 485.553 840.079 486.058C838.422 486.563 836.881 487.39 835.543 488.491C834.206 489.592 833.098 490.945 832.284 492.475C831.469 494.004 830.964 495.679 830.796 497.404C830.628 499.128 830.802 500.869 831.307 502.527Z" fill="#561262"/>
<path d="M802.346 547.502C803.259 554.738 819.002 574.035 819.002 574.035C819.002 574.035 829.43 551.415 828.509 544.179C828.068 540.708 826.268 537.554 823.503 535.411C820.739 533.268 817.236 532.312 813.767 532.753C810.297 533.193 807.145 534.995 805.003 537.761C802.862 540.527 801.906 544.031 802.346 547.502Z" fill="#561262"/>
<path d="M904.863 505.858C897.581 505.592 876.965 491.628 876.965 491.628C876.965 491.628 898.552 479.225 905.834 479.491C907.564 479.555 909.265 479.959 910.84 480.681C912.414 481.402 913.831 482.427 915.009 483.696C916.188 484.965 917.105 486.454 917.708 488.078C918.311 489.702 918.589 491.429 918.525 493.16C918.461 494.892 918.057 496.594 917.336 498.169C916.615 499.744 915.591 501.161 914.322 502.34C913.054 503.519 911.565 504.437 909.942 505.04C908.319 505.644 906.593 505.922 904.863 505.858Z" fill="#561262"/>
<path d="M870.322 558.027C863.456 555.593 847.954 536.096 847.954 536.096C847.954 536.096 872.274 530.722 879.132 533.156C880.764 533.734 882.266 534.629 883.553 535.789C884.84 536.948 885.885 538.35 886.631 539.914C887.376 541.478 887.806 543.174 887.896 544.904C887.986 546.634 887.735 548.365 887.156 549.998C886.578 551.631 885.684 553.134 884.525 554.422C883.366 555.709 881.965 556.755 880.401 557.501C878.838 558.246 877.144 558.677 875.414 558.767C873.685 558.857 871.955 558.606 870.322 558.027Z" fill="#561262"/>
<path d="M829.796 604.124C822.622 602.886 804.057 586.288 804.057 586.288C804.057 586.288 827.114 576.884 834.288 578.122C837.734 578.717 840.803 580.657 842.819 583.516C844.836 586.375 845.634 589.918 845.04 593.366C844.445 596.814 842.506 599.884 839.649 601.902C836.792 603.919 833.25 604.718 829.804 604.124H829.796Z" fill="#561262"/>
<path d="M856.589 576.818L813.92 514.905C813.92 514.905 813.09 499.578 810.334 495.997C807.577 492.417 809.736 484.45 809.736 484.45C809.736 484.45 812.725 480.073 810.134 479.674C807.544 479.275 809.736 469.514 809.736 469.514L809.536 453.988C809.536 453.988 811.928 439.035 809.935 435.48C809.352 434.511 809.06 433.395 809.095 432.264C809.131 431.134 809.492 430.038 810.134 429.108C810.134 429.108 812.526 420.543 810.134 418.358C807.743 416.174 808.341 402.824 808.939 392.274C809.536 381.724 804.746 375.751 804.746 374.156C804.746 372.561 788.97 357.035 788.97 355.647C788.97 354.26 779.007 348.478 773.02 346.883C767.034 345.288 764.045 344.1 764.244 343.303C764.443 342.506 754.87 339.324 754.87 339.324C754.87 339.324 746.492 338.726 743.296 334.539C740.099 330.352 730.351 329.156 730.069 329.114C730.011 328.84 729.945 328.558 729.886 328.284C729.828 328.009 729.762 327.685 729.704 327.386C730.459 326.115 731.157 324.82 731.788 323.482C731.979 323.075 732.161 322.651 732.336 322.269C735.831 322.111 739.418 321.364 742.158 319.22C743.566 318.042 744.716 316.587 745.537 314.945C746.359 313.303 746.834 311.509 746.932 309.676C747.101 305.996 746.297 302.336 744.599 299.067C742.856 295.479 740.29 291.765 741.17 287.877C741.56 286.216 742.565 284.721 743.08 283.076C744.051 279.961 743.155 276.538 741.643 273.647C740.132 270.756 738.032 268.214 736.354 265.415C734.212 261.847 732.782 257.897 732.145 253.785C731.804 251.625 731.672 249.349 730.584 247.446C729.682 246.035 728.491 244.831 727.088 243.916C720.85 239.452 713.316 237.166 705.65 237.411C700.22 237.602 694.806 239.073 689.418 238.4C686.171 238.001 683.074 236.846 679.936 235.908C673.244 233.931 665.53 233.116 659.702 236.946C653.873 240.776 651.557 248.31 647.613 254.2C644.125 259.417 639.011 263.787 636.354 269.303C636.354 269.203 636.404 269.095 636.437 268.987C635.784 270.263 635.285 271.613 634.951 273.008C633.938 277.344 634.785 281.88 635.839 286.208C636.379 288.442 637.126 290.868 639.061 292.106C640.995 293.344 643.735 293.069 646.027 293.476C645.944 293.85 645.844 294.232 645.761 294.615C643.388 305.831 645.325 317.531 651.185 327.384C657.046 337.236 666.401 344.518 677.387 347.781C677.387 348.188 677.387 348.611 677.387 348.993C677.383 350.137 677.313 351.28 677.179 352.416C677.179 352.416 657.128 348.262 651.739 351.087C646.351 353.911 635.781 356.071 634.187 357.65C632.593 359.228 628.607 358.048 625.054 367.41C621.5 376.773 621.068 386.318 616.477 390.671C611.885 395.024 609.502 398.039 609.303 401.229C609.104 404.419 609.901 405.208 608.099 406.213C606.297 407.218 603.715 411.389 604.512 412.984C604.512 412.984 605.508 416.963 602.32 418.948C599.132 420.934 599.522 424.921 599.522 424.921C599.522 424.921 598.326 429.307 595.537 430.296C592.747 431.284 590.945 437.864 590.945 437.864L581.87 448.289L563.944 428.435C562.602 426.947 560.723 426.053 558.723 425.951C556.722 425.848 554.762 426.544 553.275 427.887L544.473 435.828C541.076 436.653 538.006 438.482 535.664 441.079C533.746 443.049 532.202 445.351 531.106 447.874L526.282 452.21C524.766 454.091 523.839 456.379 523.619 458.785C523.399 461.191 523.895 463.609 525.045 465.734L536.528 478.436L536.602 478.544C532.26 479.092 528.424 480.488 525.493 483.071C508.347 498.199 508.14 512.147 510.739 518.502C513.337 524.857 535.066 549.363 535.066 549.363C535.066 549.363 547.695 565.786 565.928 574.525L565.787 574.666C565.43 575.049 565.073 575.497 564.724 575.913L564.425 576.295L564.151 576.677L563.828 577.159C563.736 577.283 563.653 577.416 563.57 577.549C563.487 577.682 563.338 577.923 563.23 578.122L563.006 578.504C562.873 578.754 562.732 579.011 562.599 579.277L562.466 579.534C562.3 579.883 562.134 580.241 561.976 580.614C561.918 580.747 561.868 580.889 561.81 581.021C561.71 581.279 561.602 581.545 561.503 581.852C561.403 582.16 561.378 582.193 561.32 582.367C561.262 582.542 561.146 582.882 561.063 583.148C560.98 583.414 560.947 583.522 560.897 583.705C560.847 583.887 560.731 584.286 560.656 584.585C560.581 584.884 560.565 584.934 560.515 585.125C560.407 585.582 560.299 586.056 560.208 586.554C560.208 586.737 560.141 586.928 560.108 587.119C560.042 587.451 559.983 587.792 559.934 588.141C559.892 588.382 559.867 588.622 559.834 588.863C559.801 589.104 559.751 589.52 559.709 589.852L559.635 590.616C559.635 590.982 559.568 591.364 559.543 591.746C559.543 591.979 559.543 592.211 559.502 592.444C559.502 593.075 559.435 593.707 559.427 594.371C559.029 617.631 560.39 621.046 560.39 621.046C560.39 621.046 563.205 628.464 570.977 628.995C572.117 629.079 573.264 629.018 574.389 628.813C584.759 627.018 609.087 622.84 617.664 624.435C622.82 625.39 632.368 623.978 639.169 622.69L640.954 622.35L642.199 626.304L646.143 625.224L649.464 627.16L651.581 628.372C655.517 641.73 671.508 637.178 671.508 637.178L675.261 639.355L713.754 640.351C713.754 640.351 722.057 645.336 727.379 646.897C728.012 647.089 728.659 647.231 729.313 647.321C732.882 647.607 736.464 647.674 740.041 647.52C742.988 647.446 745.272 647.321 745.272 647.321C745.272 647.321 744.882 636.862 744.317 625.158C759.03 624.543 772.074 623.621 779.97 622.233C800.528 618.62 809.105 599.92 812.26 589.927C813.208 594.011 813.882 598.155 814.277 602.329C815.115 605.976 816.183 609.567 817.474 613.079C818.597 615.905 820.07 618.578 821.858 621.037C837.019 615.862 827.844 608.103 824.648 604.714C821.451 601.324 826.848 598.541 826.848 598.541C826.848 598.541 831 595.758 830.634 593.167C830.269 590.575 830.036 587.792 843.595 587.991C857.154 588.191 856.589 576.818 856.589 576.818ZM645.977 449.718C646.151 450.856 648.044 463.126 649.755 466.332C650.112 467.014 650.253 469.431 650.203 472.887C642.166 472.247 633.797 471.907 633.797 471.907C634.037 472.197 634.188 472.553 634.228 472.928L632.966 472.646L631.131 472.197L645.935 449.668L645.977 449.718ZM616.651 496.404L630.558 498.614L631.729 498.797C631.33 500.967 631.089 503.163 631.007 505.368C631.007 505.576 631.322 505.825 631.771 506.116C631.576 507.212 631.484 508.325 631.497 509.438C631.721 510.543 638.222 512.919 645.678 514.896C645.578 515.295 645.479 515.677 645.379 516.034C638.795 512.57 628.416 510.95 627.221 508.375C626.025 505.8 590.688 493.422 590.688 493.422C590.688 493.422 589.401 492.741 587.175 491.661L596.475 493.422L599.032 493.165C604.83 494.616 610.715 495.692 616.651 496.388V496.404Z" fill="url(#paint0_linear)"/>
<path d="M811.189 585.482C811.189 585.482 805.659 618.902 777.587 623.845C749.515 628.788 655.816 627.799 655.816 627.799C655.816 627.799 602.245 620.09 582.875 574.799C563.504 529.508 551.049 511.507 567.655 510.717C584.261 509.928 673.808 540.981 678.915 541.371C684.021 541.761 816.129 472.546 811.189 585.482Z" fill="#434175"/>
<path opacity="0.05" d="M811.189 585.482C811.189 585.482 805.659 618.902 777.587 623.845C749.515 628.788 655.816 627.799 655.816 627.799C655.816 627.799 602.245 620.09 582.875 574.799C563.504 529.508 551.049 511.507 567.655 510.717C584.261 509.928 673.808 540.981 678.915 541.371C684.021 541.761 816.129 472.546 811.189 585.482Z" fill="black"/>
<path d="M559.909 622.657C559.909 622.657 562.707 630.034 570.404 630.557C571.533 630.637 572.668 630.575 573.783 630.374C584.062 628.597 608.182 624.443 616.676 626.021C621.791 626.977 631.248 625.565 637.981 624.294C642.465 623.463 645.736 622.632 645.736 622.632C645.736 622.632 637.832 596.332 636.835 595.542C635.839 594.753 601.257 573.985 601.257 573.985L573.858 572.017H573.775C573.775 572.017 568.702 572.357 564.492 577.474C561.594 580.972 559.112 586.72 558.946 596.141C558.564 619.293 559.909 622.657 559.909 622.657Z" fill="#565387"/>
<path opacity="0.05" d="M559.909 622.657C559.909 622.657 562.707 630.034 570.404 630.557C567.703 627.085 565.208 623.457 562.931 619.692L563.072 600.51C561.852 586.147 568.569 576.951 573.866 572.042H573.783C573.783 572.042 559.352 573.022 558.954 596.132C558.555 619.243 559.909 622.657 559.909 622.657Z" fill="black"/>
<path opacity="0.1" d="M678.749 580.731L704.247 560.793L744.375 521.234C744.375 521.234 740.041 521.027 733.507 520.744C731.846 521.783 727.321 525.047 727.155 529.051C726.955 533.886 716.303 529.384 710.773 532.15C705.243 534.916 678.159 569.599 673.41 569.375C668.661 569.15 664.916 566.965 662.932 570.33C662.932 570.405 662.84 570.471 662.79 570.546L678.749 580.731Z" fill="black"/>
<path opacity="0.1" d="M564.5 577.491C565.405 577.931 566.319 578.322 567.257 578.754C586.636 587.061 610.548 604.506 612.333 607.629C613.413 609.557 627.279 617.98 637.981 624.294C642.465 623.463 645.736 622.632 645.736 622.632C645.736 622.632 637.832 596.332 636.835 595.543C635.839 594.753 601.257 573.985 601.257 573.985L573.858 572.017H573.775C573.775 572.017 568.71 572.374 564.5 577.491Z" fill="black"/>
<path d="M510.73 520.802C513.296 527.133 534.809 551.464 534.809 551.464C534.809 551.464 548.442 569.258 567.821 577.565C587.2 585.873 611.113 603.318 612.89 606.441C614.036 608.476 629.496 617.781 640.356 624.177L642.789 625.598L648.186 628.729L651.042 630.391C651.042 630.391 657.684 625.074 664.252 619.724C670.819 614.375 677.229 609.133 677.337 608.834C677.528 608.244 680.094 601.515 679.504 601.125C679.197 600.917 677.844 598.176 675.353 595.002C672.694 591.48 669.244 588.634 665.281 586.695C656.148 582.541 652.237 573.088 652.237 573.088C652.237 573.088 651.407 572.457 650.054 571.626C647.712 570.147 643.951 568.021 641.17 567.663C636.81 567.115 628.715 558.218 628.715 558.218C628.715 558.218 623.177 554.654 621.002 550.11C618.926 545.774 588.272 524.707 585.432 522.763L659.752 570.513L677.536 581.952L703.035 562.014L743.171 522.456C743.171 522.456 737.774 522.19 729.886 521.858C710.383 521.027 675.743 519.689 671.367 520.678C667.805 521.508 664.13 521.747 660.49 521.384C660.49 521.384 650.627 521.833 644.1 518.385C637.574 514.938 627.287 513.326 626.1 510.776C624.912 508.225 589.924 495.947 589.924 495.947C589.924 495.947 542.29 470.635 525.285 485.671C508.281 500.707 508.157 514.481 510.73 520.802Z" fill="#434175"/>
<path d="M664.318 375.643L670.446 396.012L678.35 441.893L707.41 443.87L715.821 429.914L724.249 415.983C724.249 415.983 729.48 397.441 733.241 379.506C736.562 363.639 738.737 348.237 735.117 346.568C731.912 345.081 729.803 339.739 728.475 333.991C728.301 333.284 728.143 332.562 727.993 331.839C727.025 326.972 726.381 322.046 726.067 317.094C726.067 317.094 665.182 313.937 673.684 339.05C675.201 343.34 675.976 347.857 675.975 352.408C675.967 353.543 675.898 354.677 675.768 355.805C675.335 359.725 674.094 363.511 672.123 366.926C670.152 370.341 667.495 373.309 664.318 375.643Z" fill="#EE8E9E"/>
<path d="M651.665 372.278L653.84 406.886L658.78 436.352L664.318 450L669.258 524.665C669.258 524.665 716.926 530.181 728.516 524.566C729.352 524.209 730.077 523.635 730.617 522.904C744.616 501.779 740.024 440.505 740.024 440.505L745.363 400.938L741.801 380.403L733.208 379.489L726.565 378.783C726.565 378.783 725.071 380.627 722.912 383.476C717.05 391.219 706.306 406.446 706.995 412.801C707.975 421.507 705.808 430.404 702.445 431.791C699.083 433.178 696.318 435.546 695.728 433.178C695.139 430.811 694.541 430.213 695.13 426.848C695.72 423.484 692.556 413.2 692.556 413.2C692.556 413.2 687.226 401.137 687.575 395.995C687.923 390.853 686.985 384.914 685.399 383.535C683.813 382.156 681.646 380.76 683.423 374.397C685.2 368.033 675.627 355.747 675.627 355.747L651.665 372.278Z" fill="#E3E8F4"/>
<path opacity="0.1" d="M714.626 458.715L716.602 517.853L728.018 524.184C728.854 523.827 729.579 523.253 730.119 522.522C744.126 501.364 739.534 440.098 739.534 440.098L744.873 400.539L741.311 380.012L732.709 379.099C736.031 363.232 738.206 347.83 734.594 346.161C731.381 344.674 729.272 339.332 727.902 333.583L721.758 375.452C721.758 375.452 722.273 379.223 722.455 383.111C722.596 386.002 722.547 388.926 721.957 390.479C720.57 394.043 721.559 400.373 721.559 400.373C717.997 406.653 716.22 418.292 715.348 429.531C714.177 444.476 714.626 458.715 714.626 458.715Z" fill="black"/>
<path d="M728.093 332.67C728.093 332.67 738.057 333.908 741.212 338.061C744.367 342.215 752.678 342.788 752.678 342.788C752.678 342.788 762.168 345.953 761.969 346.742C761.77 347.531 764.734 348.728 770.67 350.306C776.607 351.884 786.446 357.625 786.446 359.012C786.446 360.399 802.064 375.817 802.064 377.404C802.064 378.991 806.813 384.881 806.215 395.397C805.618 405.914 805.028 419.131 807.403 421.308C809.777 423.484 807.403 431.991 807.403 431.991C806.773 432.921 806.426 434.014 806.404 435.137C806.382 436.261 806.685 437.366 807.278 438.321C809.254 441.884 806.888 456.721 806.888 456.721L807.079 472.148C807.079 472.148 804.904 481.834 807.477 482.232C810.051 482.631 807.079 486.976 807.079 486.976C807.079 486.976 804.904 494.893 807.677 498.448C810.45 502.004 811.23 517.239 811.23 517.239L853.575 578.712C853.575 578.712 854.173 589.985 840.731 589.786C827.288 589.586 827.446 592.361 827.878 594.928C828.31 597.495 824.125 600.269 824.125 600.269C824.125 600.269 818.786 603.036 821.949 606.4C825.113 609.764 834.205 617.473 819.185 622.616C817.407 620.173 815.945 617.516 814.834 614.707C813.559 611.218 812.502 607.653 811.67 604.032C811.67 604.032 810.284 588.996 807.519 587.019C804.754 585.042 805.144 575.547 805.144 575.547C805.144 575.547 809.097 567.838 803.567 564.673C798.037 561.508 717.689 517.048 717.689 517.048L715.713 457.909C715.713 457.909 714.327 414.205 722.63 399.568C722.63 399.568 721.642 393.238 723.028 389.682C724.415 386.127 722.829 374.646 722.829 374.646L728.093 332.67Z" fill="#565387"/>
<path opacity="0.1" d="M676.283 356.395C676.283 356.395 656.414 352.3 651.075 355.066C645.736 357.832 635.299 360.05 633.639 361.595C631.978 363.14 628.101 361.994 624.547 371.29C620.993 380.586 620.587 390.072 616.045 394.425C611.503 398.778 609.129 401.744 608.929 404.909C608.73 408.074 609.519 408.863 607.742 409.893C605.965 410.923 603.391 415.035 604.18 416.622C604.969 418.209 645.371 452.966 645.371 452.966C645.371 452.966 647.355 466.258 649.132 469.58C650.909 472.903 647.156 519.224 643.204 522.389C639.252 525.554 669.889 525.264 669.889 525.264C669.889 525.264 671.268 494.901 672.455 493.314C673.642 491.727 671.625 459.255 671.625 459.255C671.625 459.255 671.425 431.567 673.999 424.248C676.573 416.929 676.283 392.631 676.283 392.631C676.283 392.631 678.558 378.035 681.323 374.629C684.087 371.223 676.283 356.395 676.283 356.395Z" fill="black"/>
<path d="M675.693 355.805C675.693 355.805 655.816 351.71 650.477 354.476C645.138 357.242 634.701 359.419 633.082 361.005C631.463 362.592 627.553 361.396 623.949 370.692C620.346 379.987 619.997 389.483 615.447 393.836C610.897 398.188 608.531 401.154 608.331 404.319C608.132 407.484 608.929 408.273 607.152 409.262C605.375 410.251 602.802 414.404 603.59 415.982C604.379 417.561 644.707 452.376 644.707 452.376C644.707 452.376 646.683 465.668 648.459 468.991C650.236 472.314 646.483 518.626 642.531 521.791C638.579 524.956 669.217 524.665 669.217 524.665C669.217 524.665 670.603 494.303 671.791 492.724C672.978 491.146 670.96 458.665 670.96 458.665C670.96 458.665 670.769 430.977 673.335 423.658C675.901 416.34 675.618 392.008 675.618 392.008C675.618 392.008 677.893 377.412 680.65 374.015C683.407 370.617 675.693 355.805 675.693 355.805Z" fill="#565387"/>
<path opacity="0.1" d="M673.601 339.05C675.118 343.34 675.893 347.857 675.892 352.408C685.613 355.289 696.019 354.828 705.447 351.1C714.876 347.372 722.785 340.591 727.91 331.839C726.942 326.972 726.299 322.046 725.984 317.094C725.984 317.094 665.107 313.937 673.601 339.05Z" fill="black"/>
<path d="M643.561 307.798C643.571 319.4 648.031 330.555 656.021 338.963C664.01 347.372 674.92 352.392 686.501 352.989C698.081 353.585 709.449 349.713 718.259 342.17C727.07 334.627 732.651 323.989 733.852 312.449C735.054 300.91 731.783 289.349 724.715 280.152C717.647 270.954 707.321 264.821 695.866 263.018C684.411 261.214 672.702 263.877 663.152 270.458C653.602 277.039 646.94 287.035 644.541 298.386C643.886 301.48 643.558 304.635 643.561 307.798Z" fill="#EE8E9E"/>
<path d="M614.5 412.618L603.632 415.983C603.632 415.983 604.62 419.937 601.457 421.914C598.293 423.891 598.692 427.854 598.692 427.854C598.692 427.854 597.504 432.198 594.74 433.187C591.975 434.175 590.189 440.663 590.189 440.663L581.098 451.147C581.098 451.147 577.735 453.913 578.333 455.301C578.931 456.688 574.771 457.078 574.771 457.078L576.946 492.317L595.728 495.881L607.352 494.693L616.842 491.129L625.145 486.145L628.931 476.534L645.537 451.222L614.5 412.618Z" fill="#565387"/>
<path d="M577.536 459.919C577.536 459.919 553.457 425.103 535.432 443.894C517.406 462.685 542.747 493.139 548.675 492.151C554.603 491.162 582.875 489.584 582.875 489.584L577.536 459.919Z" fill="#EE8E9E"/>
<path d="M549.98 435.661L527.673 455.792C523.376 459.67 523.034 466.299 526.91 470.598L551.691 498.085C555.567 502.385 562.193 502.726 566.49 498.848L588.796 478.718C593.094 474.84 593.435 468.211 589.559 463.912L564.779 436.424C560.903 432.125 554.277 431.783 549.98 435.661Z" fill="#30374E"/>
<path opacity="0.1" d="M549.98 435.661L527.673 455.792C523.376 459.67 523.034 466.299 526.91 470.598L551.691 498.085C555.567 502.385 562.193 502.726 566.49 498.848L588.796 478.718C593.094 474.84 593.435 468.211 589.559 463.912L564.779 436.424C560.903 432.125 554.277 431.783 549.98 435.661Z" fill="black"/>
<path d="M550.659 432.795L528.352 452.925C524.055 456.803 523.714 463.432 527.59 467.732L552.37 495.219C556.246 499.518 562.872 499.86 567.169 495.982L589.476 475.851C593.773 471.973 594.114 465.344 590.238 461.045L565.458 433.558C561.582 429.258 554.956 428.917 550.659 432.795Z" fill="#30374E"/>
<path d="M558.281 477.09C564.504 477.09 569.548 472.043 569.548 465.817C569.548 459.591 564.504 454.544 558.281 454.544C552.059 454.544 547.014 459.591 547.014 465.817C547.014 472.043 552.059 477.09 558.281 477.09Z" fill="#561262"/>
<path opacity="0.1" d="M558.281 477.09C564.504 477.09 569.548 472.043 569.548 465.817C569.548 459.591 564.504 454.544 558.281 454.544C552.059 454.544 547.014 459.591 547.014 465.817C547.014 472.043 552.059 477.09 558.281 477.09Z" fill="black"/>
<path d="M558.912 475.661C565.135 475.661 570.179 470.614 570.179 464.388C570.179 458.162 565.135 453.115 558.912 453.115C552.69 453.115 547.645 458.162 547.645 464.388C547.645 470.614 552.69 475.661 558.912 475.661Z" fill="#561262"/>
<path d="M561.926 467.205C561.727 493.314 615.696 498.847 615.696 498.847L629.479 501.04L635.656 502.02L638.23 476.534C638.23 476.534 635.399 476.11 631.862 475.288C626.639 474.066 619.873 471.965 618.453 469.016C616.086 464.073 562.117 441.104 561.926 467.205Z" fill="#EE8E9E"/>
<path opacity="0.1" d="M644.541 298.386C645.786 298.478 646.96 299.001 647.862 299.865C649.389 301.485 649.472 304.359 651.457 305.356C652.198 305.679 653.019 305.774 653.815 305.63C659.071 304.882 662.118 298.984 667.158 297.323C670.031 296.392 673.194 296.999 676 298.079C677.129 298.432 678.141 299.084 678.931 299.964C680.592 302.149 679.438 305.364 680.218 308.014C681.306 311.686 685.69 313.148 689.484 313.63C693.279 314.111 697.555 314.377 700.087 317.243C701.881 319.279 702.337 322.228 701.972 324.894C701.748 325.825 701.748 326.796 701.972 327.727C703.018 330.693 708.149 330.219 709.486 327.91C710.466 326.207 710.167 324.795 712.475 324.321C714.036 323.997 715.871 324.653 717.316 325.152C721.34 326.541 725.581 327.194 729.837 327.079C732.527 321.301 733.969 315.019 734.067 308.646C734.165 302.272 732.917 295.949 730.405 290.091C727.893 284.232 724.174 278.97 719.49 274.649C714.807 270.327 709.264 267.043 703.225 265.012C697.186 262.98 690.786 262.247 684.444 262.86C678.103 263.472 671.961 265.417 666.422 268.567C660.883 271.717 656.071 276.002 652.301 281.14C648.53 286.278 645.886 292.155 644.541 298.386Z" fill="black"/>
<path d="M701.947 326.531C701.723 325.6 701.723 324.629 701.947 323.698C702.304 321.015 701.856 318.074 700.062 316.047C697.571 313.181 693.254 312.907 689.459 312.433C685.665 311.96 681.281 310.498 680.193 306.826C679.413 304.176 680.592 300.953 678.906 298.768C678.121 297.888 677.111 297.239 675.984 296.891C673.169 295.803 670.006 295.229 667.133 296.126C662.093 297.788 659.046 303.703 653.79 304.434C652.994 304.578 652.174 304.482 651.432 304.16C649.448 303.163 649.365 300.288 647.837 298.677C645.437 296.135 640.879 297.771 637.94 295.886C636.022 294.648 635.283 292.247 634.751 290.029C633.705 285.726 632.867 281.215 633.871 276.912C635.59 269.552 642.174 264.509 646.326 258.229C650.236 252.373 652.428 244.938 658.307 241.083C664.185 237.229 671.733 238.084 678.358 240.053C681.464 240.975 684.536 242.121 687.749 242.545C693.096 243.201 698.46 241.714 703.84 241.565C711.439 241.319 718.908 243.588 725.087 248.02C726.48 248.932 727.663 250.13 728.558 251.534C729.629 253.428 729.77 255.687 730.094 257.83C730.722 261.919 732.131 265.848 734.246 269.402C735.906 272.185 737.99 274.711 739.493 277.585C740.996 280.459 741.876 283.857 740.913 286.947C740.406 288.608 739.402 290.046 739.028 291.715C738.148 295.578 740.689 299.267 742.424 302.83C744.105 306.081 744.901 309.716 744.732 313.372C744.635 315.192 744.165 316.973 743.351 318.604C742.536 320.234 741.396 321.68 739.999 322.851C737.201 325.044 733.523 325.775 729.978 325.891C725.64 326.038 721.312 325.387 717.208 323.972C715.755 323.474 713.887 322.817 712.367 323.141C710.059 323.615 710.358 325.027 709.378 326.73C708.116 329.056 702.993 329.496 701.947 326.531Z" fill="#434175"/>
<path opacity="0.1" d="M677.561 581.918L703.06 561.981L743.196 522.422C743.196 522.422 737.799 522.157 729.911 521.824C728.475 523.286 727.196 525.147 727.113 527.224C726.914 532.059 716.261 527.564 710.732 530.331C705.202 533.097 678.118 567.771 673.368 567.547C668.619 567.323 664.874 565.138 662.89 568.502C662.848 568.58 662.801 568.655 662.749 568.727C661.96 569.628 660.904 570.254 659.735 570.513L677.561 581.918Z" fill="black"/>
<path d="M626.166 580.531L638.977 621.452L640.987 627.882L647.089 626.221L660.54 622.524L720.454 606.059C720.454 606.059 731.713 605.91 742.042 600.302C753.458 594.089 766.336 590.965 779.272 592.178C787.193 592.917 796.003 589.503 803.351 575.995C803.351 575.995 819.957 526.983 778.043 512.861C736.13 498.739 734.137 520.337 734.137 520.337C734.137 520.337 733.922 520.454 733.573 520.686C731.912 521.725 727.387 524.989 727.221 528.993C727.022 533.828 716.369 529.326 710.839 532.092C705.31 534.858 678.225 569.541 673.476 569.316C668.727 569.092 664.982 566.907 662.998 570.272C662.998 570.347 662.907 570.413 662.857 570.488C661.395 572.506 656.995 572.98 654.081 573.055C652.495 573.105 651.341 573.055 651.341 573.055L650.967 573.171L647.862 574.035L626.166 580.531Z" fill="#434175"/>
<path opacity="0.1" d="M629.479 501.04L635.656 502.02L638.23 476.534C638.23 476.534 635.399 476.11 631.862 475.288C632.8 478.818 630.675 492.583 629.479 501.04Z" fill="black"/>
<path opacity="0.1" d="M791.121 381.831C791.121 381.831 809.503 376.49 804.953 428.709C800.403 480.928 766.411 513.916 766.411 513.916C766.411 513.916 727.271 531.12 709.677 528.354C692.083 525.587 679.238 525.031 679.238 525.031C673.701 522.23 667.641 520.615 661.445 520.287C651.557 519.888 630.807 513.758 630.409 511.781C630.01 509.804 635.548 480.728 633.174 478.552C633.174 478.552 660.847 479.69 663.621 481.692C666.394 483.694 670.338 482.257 673.302 481.692C676.266 481.127 685.366 473.21 703.35 480.139C703.35 480.139 709.478 480.728 711.852 479.15C714.227 477.572 718.03 478.751 718.03 478.751C718.03 478.751 721.758 477.364 722.331 476.533C722.904 475.703 727.661 476.533 727.661 476.533C727.944 476.671 728.254 476.744 728.568 476.747C728.882 476.75 729.193 476.683 729.478 476.55C729.763 476.417 730.015 476.222 730.215 475.979C730.415 475.736 730.558 475.451 730.634 475.146C731.255 473.527 732.195 472.049 733.399 470.801C733.399 470.801 738.737 440.738 748.817 429.465C748.817 429.465 751.781 426.889 750.992 423.724C750.204 420.559 767.424 375.493 791.121 381.831Z" fill="black"/>
<path d="M790.672 377.811C790.672 377.811 809.055 372.47 804.513 424.689C799.972 476.908 765.921 509.929 765.921 509.929C765.921 509.929 726.781 527.133 709.187 524.366C691.593 521.6 678.749 521.002 678.749 521.002C673.212 518.2 667.152 516.584 660.955 516.259C651.075 515.86 630.318 509.729 629.919 507.752C629.52 505.775 635.058 476.7 632.692 474.523C632.692 474.523 660.366 475.661 663.131 477.663C665.896 479.666 669.856 478.228 672.82 477.663C675.784 477.099 684.876 469.19 702.869 476.11C702.869 476.11 708.996 476.7 711.363 475.121C713.729 473.543 717.548 474.723 717.548 474.723C717.548 474.723 721.251 473.335 721.841 472.546C722.43 471.757 727.18 472.546 727.18 472.546C727.461 472.684 727.77 472.758 728.083 472.761C728.397 472.765 728.707 472.698 728.991 472.565C729.275 472.433 729.526 472.239 729.726 471.997C729.925 471.755 730.068 471.472 730.144 471.167C730.763 469.545 731.704 468.064 732.909 466.814C732.909 466.814 738.248 436.751 748.327 425.478C748.327 425.478 751.291 422.903 750.503 419.746C749.714 416.589 766.909 371.481 790.672 377.811Z" fill="#565387"/>
<path opacity="0.1" d="M647.862 574.035L673.966 605.602C674.066 605.511 674.132 605.444 674.132 605.419C674.331 604.821 676.897 598.101 676.308 597.702C675.718 597.303 671.168 587.418 662.076 583.264C656.522 580.772 652.885 576.211 650.901 573.088L647.862 574.035Z" fill="black"/>
<path opacity="0.1" d="M648.219 628.73L651.075 630.391C651.075 630.391 657.717 625.075 664.285 619.725C670.853 614.375 677.262 609.133 677.37 608.834C677.561 608.244 680.127 601.515 679.537 601.125C679.23 600.917 677.877 598.176 675.386 595.003C657.684 590.018 668.951 602.338 670.454 602.903C670.454 602.903 648.866 597.918 647.721 621.436C647.564 623.879 647.731 626.331 648.219 628.73Z" fill="black"/>
<path d="M670.047 638.682L673.808 640.858L712.002 641.847C712.002 641.847 720.189 646.831 725.502 648.343C726.129 648.538 726.77 648.68 727.42 648.766C730.956 649.053 734.505 649.119 738.048 648.966C740.971 648.891 743.238 648.766 743.238 648.766C743.238 648.766 741.428 600.585 740.066 595.6C739.418 593.175 736.222 593.706 733.066 594.919C730.696 595.881 728.41 597.04 726.233 598.383C726.233 598.383 710.026 599.953 707.452 601.349C704.878 602.745 697.571 600.518 693.021 601.349C688.471 602.18 680.376 595.991 680.376 595.991C658.232 588.68 670.687 602.321 672.264 602.919C672.264 602.919 650.726 597.935 649.539 621.452C648.352 644.97 670.047 638.682 670.047 638.682Z" fill="#565387"/>
<path d="M725.204 620.09C725.619 630.059 733.382 642.428 738.007 648.966C740.929 648.891 743.196 648.767 743.196 648.767C743.196 648.767 741.386 600.585 740.024 595.601C739.377 593.175 736.18 593.707 733.025 594.919C729.231 602.064 724.871 612.057 725.204 620.09Z" fill="#565387"/>
<path opacity="0.1" d="M725.204 620.09C725.619 630.059 733.382 642.428 738.007 648.966C740.929 648.891 743.196 648.767 743.196 648.767C743.196 648.767 741.386 600.585 740.024 595.601C739.377 593.175 736.18 593.707 733.025 594.919C729.231 602.064 724.871 612.057 725.204 620.09Z" fill="black"/>
<path opacity="0.05" d="M718.677 621.411C721.301 631.031 721.276 641.822 725.461 648.343C726.087 648.538 726.729 648.68 727.379 648.767C730.914 649.053 734.463 649.119 738.007 648.966C740.929 648.891 743.196 648.767 743.196 648.767C743.196 648.767 741.386 600.585 740.024 595.601C739.377 593.175 736.18 593.707 733.025 594.919C730.655 595.881 728.369 597.04 726.192 598.384C726.192 598.384 715.323 609.1 718.677 621.411Z" fill="black"/>
<path opacity="0.1" d="M587.059 523.834C587.059 523.834 606.007 529.99 622.064 551.855L587.059 523.834Z" fill="black"/>
<g opacity="0.1">
<path opacity="0.1" d="M741.046 286.515C741.015 286.656 740.976 286.794 740.929 286.93C740.748 287.498 740.529 288.053 740.273 288.592C740.468 287.878 740.727 287.183 741.046 286.515Z" fill="black"/>
<path opacity="0.1" d="M633.838 276.92C634.167 275.534 634.66 274.193 635.308 272.924C635.208 273.265 635.1 273.606 635.017 273.954C634.012 278.258 634.851 282.768 635.897 287.071C636.437 289.289 637.167 291.69 639.085 292.928C642.033 294.814 646.558 293.169 648.983 295.711C650.51 297.331 650.593 300.205 652.586 301.202C653.327 301.525 654.148 301.621 654.944 301.476C660.192 300.728 663.247 294.83 668.287 293.169C671.16 292.239 674.315 292.845 677.13 293.933C678.256 294.281 679.267 294.93 680.052 295.811C681.713 297.995 680.559 301.219 681.339 303.86C682.427 307.532 686.811 308.994 690.605 309.468C694.4 309.941 698.676 310.215 701.208 313.09C703.001 315.116 703.458 318.074 703.093 320.74C702.873 321.672 702.873 322.642 703.093 323.573C704.139 326.539 709.27 326.065 710.565 323.756C711.545 322.053 711.255 320.641 713.563 320.167C715.115 319.843 716.95 320.5 718.395 320.998C722.499 322.413 726.827 323.063 731.165 322.917C734.71 322.792 738.397 322.086 741.187 319.877C742.461 318.86 743.508 317.586 744.259 316.138C743.608 318.774 742.123 321.129 740.024 322.85C737.235 325.044 733.556 325.775 730.003 325.891C725.667 326.038 721.342 325.388 717.241 323.972C715.788 323.474 713.92 322.817 712.4 323.141C710.092 323.615 710.383 325.027 709.411 326.73C708.066 329.073 702.943 329.513 701.889 326.547C701.669 325.616 701.669 324.646 701.889 323.714C702.254 321.031 701.806 318.09 700.012 316.063C697.472 313.198 693.196 312.923 689.401 312.45C685.607 311.976 681.223 310.514 680.144 306.843C679.355 304.193 680.542 300.969 678.857 298.785C678.067 297.906 677.054 297.257 675.926 296.907C673.111 295.819 669.956 295.246 667.083 296.143C662.035 297.804 658.988 303.719 653.74 304.45C652.944 304.595 652.124 304.499 651.382 304.176C649.389 303.179 649.306 300.305 647.779 298.693C645.379 296.151 640.829 297.788 637.89 295.902C635.964 294.664 635.233 292.263 634.693 290.045C633.664 285.734 632.825 281.223 633.838 276.92Z" fill="black"/>
</g>
<path opacity="0.1" d="M744.109 435.214C740.489 440.107 736.354 444.634 733.15 449.809C729.945 454.985 727.678 461.024 728.35 467.072C731.672 463.666 733.183 458.964 735.275 454.694C738.812 447.467 744.109 441.336 748.56 434.69C749.39 433.419 754.878 426.092 752.113 425.743C749.838 425.453 745.346 433.544 744.109 435.214Z" fill="black"/>
</g>
<defs>
<linearGradient id="paint0_linear" x1="683.058" y1="647.562" x2="683.058" y2="234.238" gradientUnits="userSpaceOnUse">
<stop stop-color="#808080" stop-opacity="0.25"/>
<stop offset="0.54" stop-color="#808080" stop-opacity="0.12"/>
<stop offset="1" stop-color="#808080" stop-opacity="0.1"/>
</linearGradient>
<clipPath id="clip0">
<rect width="947" height="654" fill="white"/>
</clipPath>
</defs>
</svg>
