<svg width="1113" height="1165" viewBox="0 0 1113 1165" fill="none" xmlns="http://www.w3.org/2000/svg">
<mask id="mask0" mask-type="alpha" maskUnits="userSpaceOnUse" x="0" y="0" width="1113" height="1165">
<path fill-rule="evenodd" clip-rule="evenodd" d="M530.027 7.11673C683.829 23.292 908.043 -33.5246 1008.95 80.6658C1116.63 202.525 1128.72 492.851 1098.98 650.988C1068.19 814.658 910.477 911.295 762.032 993.686C593.673 1087.13 396.754 1227.87 228.604 1134.07C63.2672 1041.84 129.65 803.703 94.5208 621.327C62.4867 455.018 -61.2076 281.277 37.5209 142.037C139.472 -1.74727 351.64 -11.6442 530.027 7.11673Z" fill="black"/>
</mask>
<g mask="url(#mask0)">
<path fill-rule="evenodd" clip-rule="evenodd" d="M533.123 7.11673C686.371 23.292 909.78 -33.5246 1010.32 80.6658C1117.61 202.525 1129.66 492.851 1100.03 650.988C1069.36 814.658 912.205 911.295 764.293 993.686C596.539 1087.13 400.328 1227.87 232.782 1134.07C68.0398 1041.84 134.184 803.703 99.1811 621.327C67.2621 455.018 -55.9876 281.277 42.386 142.037C143.97 -1.74727 355.376 -11.6442 533.123 7.11673Z" fill="white"/>
<g clip-path="url(#clip0)">
<path d="M514.892 633.275H512.298V560.308C512.298 549.107 507.966 538.365 500.254 530.445C492.542 522.525 482.082 518.075 471.176 518.075H320.644C309.738 518.075 299.278 522.525 291.566 530.445C283.854 538.365 279.521 549.107 279.521 560.308V960.618C279.521 971.819 283.854 982.561 291.566 990.481C299.278 998.402 309.738 1002.85 320.644 1002.85H471.176C482.082 1002.85 492.542 998.401 500.253 990.481C507.965 982.561 512.298 971.819 512.298 960.618V685.215H514.891L514.892 633.275Z" fill="#E6E6E6"/>
<path d="M472.835 529.059H453.187C454.091 531.334 454.436 533.803 454.192 536.247C453.947 538.691 453.121 541.037 451.787 543.076C450.452 545.116 448.649 546.787 446.538 547.942C444.426 549.097 442.07 549.702 439.677 549.702H353.439C351.047 549.701 348.691 549.097 346.579 547.942C344.468 546.786 342.665 545.115 341.331 543.076C339.996 541.036 339.17 538.691 338.926 536.247C338.682 533.802 339.027 531.334 339.93 529.059H321.578C313.433 529.059 305.622 532.381 299.863 538.296C294.104 544.211 290.868 552.233 290.868 560.598V960.327C290.868 968.691 294.104 976.713 299.863 982.628C305.622 988.543 313.433 991.866 321.578 991.866H472.835C480.98 991.866 488.791 988.543 494.55 982.628C500.31 976.713 503.545 968.691 503.545 960.327V560.597C503.545 552.233 500.309 544.211 494.55 538.296C488.791 532.381 480.98 529.059 472.835 529.059H472.835Z" fill="white"/>
<path d="M397.207 765.506C383.113 765.506 369.335 761.213 357.617 753.172C345.898 745.13 336.765 733.701 331.371 720.328C325.978 706.955 324.566 692.241 327.316 678.044C330.066 663.848 336.852 650.808 346.818 640.573C356.784 630.338 369.481 623.368 383.304 620.544C397.128 617.721 411.455 619.17 424.476 624.709C437.497 630.248 448.627 639.628 456.457 651.663C464.287 663.698 468.466 677.848 468.466 692.322C468.445 711.725 460.93 730.326 447.571 744.046C434.212 757.766 416.099 765.484 397.207 765.506V765.506ZM397.207 620.532C383.381 620.532 369.866 624.743 358.371 632.631C346.875 640.519 337.916 651.731 332.625 664.849C327.334 677.967 325.95 692.402 328.647 706.327C331.344 720.253 338.002 733.045 347.778 743.085C357.554 753.125 370.01 759.962 383.569 762.732C397.129 765.502 411.184 764.08 423.957 758.647C436.73 753.213 447.647 744.012 455.328 732.206C463.009 720.4 467.109 706.521 467.109 692.322C467.088 673.289 459.717 655.041 446.612 641.583C433.507 628.124 415.739 620.554 397.207 620.532V620.532Z" fill="#3F3D56"/>
<path d="M423.379 671.062C429.482 665.766 433.189 657.4 432.217 649.255C431.245 641.11 425.223 633.623 417.413 631.893C409.602 630.164 400.699 634.951 398.327 642.787C397.021 627.68 395.517 611.94 387.696 599.075C380.615 587.427 368.349 579.091 355.057 577.6C341.764 576.109 327.769 581.741 319.479 592.516C311.189 603.291 309.159 618.955 314.965 631.326C319.242 640.439 327.122 647.221 335.379 652.738C361.72 670.341 394.395 676.288 425.487 671.589L423.379 671.062Z" fill="#E6E6E6"/>
<path d="M332.624 582.053C343.592 591.228 353.654 601.489 362.664 612.689C376.766 630.156 388.176 649.739 396.499 670.758C397.109 672.291 394.684 672.958 394.082 671.442C380.464 637.283 358.724 607.176 330.851 583.874C329.599 582.827 331.382 581.015 332.624 582.053V582.053Z" fill="white"/>
<path d="M336.356 837.295C340.479 837.295 343.821 833.863 343.821 829.628C343.821 825.394 340.479 821.962 336.356 821.962C332.233 821.962 328.891 825.394 328.891 829.628C328.891 833.863 332.233 837.295 336.356 837.295Z" fill="#3F3D56"/>
<path d="M460.093 835.204H365.08C363.64 835.204 362.259 834.617 361.241 833.571C360.223 832.525 359.651 831.107 359.651 829.628C359.651 828.15 360.223 826.731 361.241 825.686C362.259 824.64 363.64 824.052 365.08 824.052H460.093C461.533 824.052 462.914 824.64 463.932 825.686C464.951 826.731 465.523 828.15 465.523 829.628C465.523 831.107 464.951 832.525 463.932 833.571C462.914 834.617 461.533 835.204 460.093 835.204Z" fill="#CCCCCC"/>
<path d="M430.625 835.271H364.687C363.23 835.271 361.833 834.677 360.802 833.619C359.772 832.56 359.193 831.125 359.193 829.628C359.193 828.132 359.772 826.696 360.802 825.638C361.833 824.58 363.23 823.985 364.687 823.985H430.625C432.082 823.985 433.48 824.58 434.51 825.638C435.541 826.696 436.12 828.132 436.12 829.628C436.12 831.125 435.541 832.56 434.51 833.619C433.48 834.677 432.082 835.271 430.625 835.271Z" fill="#561262"/>
<path d="M336.356 870.751C340.479 870.751 343.821 867.318 343.821 863.084C343.821 858.849 340.479 855.417 336.356 855.417C332.233 855.417 328.891 858.849 328.891 863.084C328.891 867.318 332.233 870.751 336.356 870.751Z" fill="#3F3D56"/>
<path d="M460.093 868.66H365.08C363.64 868.66 362.259 868.072 361.241 867.027C360.223 865.981 359.651 864.563 359.651 863.084C359.651 861.605 360.223 860.187 361.241 859.141C362.259 858.095 363.64 857.508 365.08 857.508H460.093C461.533 857.508 462.914 858.095 463.932 859.141C464.951 860.187 465.523 861.605 465.523 863.084C465.523 864.563 464.951 865.981 463.932 867.027C462.914 868.072 461.533 868.66 460.093 868.66Z" fill="#CCCCCC"/>
<path d="M336.356 904.206C340.479 904.206 343.821 900.773 343.821 896.539C343.821 892.305 340.479 888.872 336.356 888.872C332.233 888.872 328.891 892.305 328.891 896.539C328.891 900.773 332.233 904.206 336.356 904.206Z" fill="#3F3D56"/>
<path d="M460.093 902.115H365.08C363.64 902.115 362.259 901.528 361.241 900.482C360.223 899.436 359.651 898.018 359.651 896.539C359.651 895.06 360.223 893.642 361.241 892.596C362.259 891.551 363.64 890.963 365.08 890.963H460.093C461.533 890.963 462.914 891.551 463.932 892.596C464.951 893.642 465.523 895.06 465.523 896.539C465.523 898.018 464.951 899.436 463.932 900.482C462.914 901.528 461.533 902.115 460.093 902.115Z" fill="#CCCCCC"/>
<path d="M408.908 868.727H364.687C363.23 868.727 361.833 868.132 360.802 867.074C359.772 866.016 359.193 864.58 359.193 863.084C359.193 861.587 359.772 860.152 360.802 859.093C361.833 858.035 363.23 857.441 364.687 857.441H408.908C410.365 857.441 411.762 858.035 412.793 859.093C413.823 860.152 414.402 861.587 414.402 863.084C414.402 864.58 413.823 866.016 412.793 867.074C411.762 868.132 410.365 868.727 408.908 868.727V868.727Z" fill="#561262"/>
<path d="M448.27 902.182H364.687C363.23 902.182 361.833 901.588 360.802 900.529C359.772 899.471 359.193 898.036 359.193 896.539C359.193 895.042 359.772 893.607 360.802 892.549C361.833 891.491 363.23 890.896 364.687 890.896H448.27C449.727 890.896 451.125 891.491 452.155 892.549C453.186 893.607 453.765 895.042 453.765 896.539C453.765 898.036 453.186 899.471 452.155 900.529C451.125 901.588 449.727 902.182 448.27 902.182V902.182Z" fill="#561262"/>
<path d="M434.936 680.942H425.608V652.635C425.609 651.803 425.931 651.006 426.503 650.418C427.076 649.83 427.852 649.499 428.662 649.498H431.882C432.691 649.499 433.468 649.83 434.04 650.418C434.613 651.006 434.935 651.803 434.936 652.635V680.942Z" fill="#3F3D56"/>
<path d="M440.591 729.113H351.428L351.108 677.504C351.105 676.707 351.257 675.917 351.557 675.181C351.856 674.446 352.296 673.779 352.851 673.222L375.25 650.816C376.312 649.75 377.736 649.148 379.222 649.136L416.71 648.784C417.56 648.779 418.401 648.965 419.173 649.33C419.945 649.695 420.63 650.23 421.179 650.896L421.182 650.9L438.987 673.326C440.023 674.633 440.589 676.266 440.591 677.951L440.591 729.113Z" fill="#3F3D56"/>
<path d="M440.591 729.113H392.675V682.86C392.676 681.451 393.165 680.088 394.055 679.016L414.873 653.949V653.949C415.414 653.297 416.087 652.773 416.845 652.414C417.603 652.054 418.428 651.869 419.262 651.869H419.284C420.122 651.872 420.95 652.062 421.709 652.428C422.468 652.793 423.141 653.324 423.68 653.983L439.239 673.007C440.111 674.074 440.59 675.423 440.591 676.817V729.113Z" fill="#561262"/>
<path d="M420.265 711.348H413.333C412.883 711.348 412.452 711.164 412.134 710.837C411.816 710.511 411.637 710.068 411.636 709.606V703.636C411.637 703.174 411.816 702.731 412.134 702.405C412.452 702.078 412.883 701.894 413.333 701.894H420.265C420.715 701.894 421.147 702.078 421.465 702.405C421.783 702.731 421.962 703.174 421.962 703.636V709.606C421.962 710.068 421.783 710.511 421.465 710.837C421.147 711.164 420.715 711.348 420.265 711.348V711.348Z" fill="white"/>
<path d="M420.265 696.052H413.333C412.883 696.051 412.452 695.868 412.134 695.541C411.816 695.214 411.637 694.771 411.636 694.309V688.479C411.637 688.017 411.816 687.574 412.134 687.247C412.452 686.921 412.883 686.737 413.333 686.736H420.265C420.715 686.737 421.147 686.921 421.465 687.247C421.783 687.574 421.962 688.017 421.962 688.479V694.309C421.962 694.771 421.783 695.214 421.465 695.541C421.147 695.868 420.715 696.051 420.265 696.052V696.052Z" fill="white"/>
<path d="M377.393 709.024H370.461C370.011 709.024 369.58 708.84 369.262 708.513C368.944 708.187 368.765 707.744 368.765 707.282V701.313C368.765 700.851 368.944 700.408 369.262 700.081C369.58 699.755 370.011 699.571 370.461 699.57H377.393C377.843 699.571 378.275 699.755 378.593 700.081C378.911 700.408 379.09 700.851 379.09 701.313V707.282C379.09 707.744 378.911 708.187 378.593 708.513C378.275 708.84 377.843 709.024 377.393 709.024Z" fill="white"/>
<path d="M377.393 693.728H370.461C370.011 693.728 369.58 693.544 369.262 693.217C368.944 692.89 368.765 692.448 368.765 691.986V686.155C368.765 685.694 368.944 685.251 369.262 684.924C369.58 684.597 370.011 684.414 370.461 684.413H377.393C377.843 684.414 378.275 684.597 378.593 684.924C378.911 685.251 379.09 685.694 379.09 686.155V691.986C379.09 692.448 378.911 692.89 378.593 693.217C378.275 693.544 377.843 693.728 377.393 693.728Z" fill="white"/>
<path d="M457.846 729.717H336.567C336.387 729.717 336.214 729.643 336.087 729.513C335.96 729.382 335.888 729.205 335.888 729.02C335.888 728.835 335.96 728.658 336.087 728.527C336.214 728.396 336.387 728.323 336.567 728.323H457.846C458.026 728.323 458.199 728.396 458.326 728.527C458.454 728.658 458.525 728.835 458.525 729.02C458.525 729.205 458.454 729.382 458.326 729.513C458.199 729.643 458.026 729.717 457.846 729.717Z" fill="#3F3D56"/>
</g>
<g clip-path="url(#clip1)">
<path d="M975.403 190.904H621.629C620.282 190.905 618.99 191.457 618.037 192.438C617.084 193.419 616.549 194.749 616.547 196.136V442.971C616.549 444.358 617.084 445.689 618.037 446.67C618.99 447.651 620.282 448.202 621.629 448.204H975.403C976.137 448.204 976.864 448.04 977.531 447.723C978.198 447.405 978.79 446.943 979.267 446.367C979.307 446.322 979.344 446.274 979.378 446.223C979.681 445.841 979.927 445.415 980.106 444.957C980.362 444.328 980.493 443.653 980.491 442.971V196.137C980.489 194.748 979.953 193.417 978.999 192.436C978.044 191.455 976.751 190.904 975.403 190.904ZM979.04 442.971C979.04 443.701 978.831 444.415 978.439 445.023C978.091 445.559 977.618 445.996 977.064 446.295C976.55 446.569 975.981 446.711 975.403 446.709H621.629C620.667 446.708 619.744 446.314 619.063 445.613C618.383 444.912 618 443.962 617.998 442.971V196.137C618 195.145 618.383 194.195 619.063 193.494C619.744 192.793 620.667 192.399 621.629 192.398H975.403C976.366 192.398 977.291 192.791 977.972 193.492C978.654 194.193 979.038 195.144 979.04 196.137V442.971Z" fill="#3F3D56"/>
<path d="M979.762 211.877H617.272V213.373H979.762V211.877Z" fill="#3F3D56"/>
<path d="M629.621 206.611C632.028 206.611 633.98 204.602 633.98 202.123C633.98 199.645 632.028 197.635 629.621 197.635C627.214 197.635 625.262 199.645 625.262 202.123C625.262 204.602 627.214 206.611 629.621 206.611Z" fill="#3F3D56"/>
<path d="M642.152 206.611C644.559 206.611 646.511 204.602 646.511 202.123C646.511 199.645 644.559 197.635 642.152 197.635C639.745 197.635 637.793 199.645 637.793 202.123C637.793 204.602 639.745 206.611 642.152 206.611Z" fill="#3F3D56"/>
<path d="M654.683 206.611C657.09 206.611 659.042 204.602 659.042 202.123C659.042 199.645 657.09 197.635 654.683 197.635C652.276 197.635 650.324 199.645 650.324 202.123C650.324 204.602 652.276 206.611 654.683 206.611Z" fill="#3F3D56"/>
<path d="M936.776 320.329H654.108C651.481 320.326 648.962 319.25 647.105 317.337C645.247 315.425 644.203 312.832 644.2 310.127V248.316C644.203 245.612 645.247 243.018 647.105 241.106C648.962 239.193 651.481 238.118 654.108 238.115H936.776C939.403 238.118 941.922 239.193 943.779 241.106C945.637 243.018 946.681 245.612 946.684 248.316V310.127C946.681 312.832 945.637 315.425 943.779 317.337C941.922 319.25 939.403 320.326 936.776 320.329ZM654.108 239.315C651.79 239.317 649.568 240.267 647.929 241.954C646.29 243.642 645.368 245.93 645.365 248.316V310.127C645.368 312.513 646.29 314.801 647.929 316.489C649.568 318.176 651.79 319.126 654.108 319.128H936.776C939.094 319.126 941.316 318.176 942.955 316.489C944.594 314.801 945.516 312.513 945.519 310.127V248.316C945.516 245.93 944.594 243.642 942.955 241.954C941.316 240.267 939.094 239.317 936.776 239.315H654.108Z" fill="#F2F2F2"/>
<path d="M716.47 431.948H654.108C651.481 431.945 648.962 430.869 647.105 428.956C645.247 427.044 644.203 424.451 644.2 421.746V376.138C644.203 373.433 645.247 370.84 647.105 368.928C648.962 367.015 651.481 365.939 654.108 365.936H716.47C719.096 365.939 721.615 367.015 723.472 368.928C725.33 370.84 726.375 373.433 726.378 376.138V421.746C726.375 424.451 725.33 427.044 723.472 428.956C721.615 430.869 719.096 431.945 716.47 431.948ZM654.108 367.137C651.79 367.139 649.568 368.089 647.929 369.776C646.29 371.464 645.368 373.752 645.365 376.138V421.746C645.368 424.133 646.29 426.421 647.929 428.108C649.568 429.796 651.79 430.745 654.108 430.748H716.47C718.787 430.745 721.009 429.796 722.648 428.108C724.287 426.421 725.209 424.133 725.212 421.746V376.138C725.209 373.752 724.287 371.464 722.648 369.776C721.009 368.089 718.787 367.139 716.47 367.137H654.108Z" fill="#F2F2F2"/>
<path d="M936.776 431.948H874.414C871.788 431.945 869.269 430.869 867.412 428.956C865.554 427.044 864.509 424.451 864.507 421.746V376.138C864.509 373.433 865.554 370.84 867.412 368.928C869.269 367.015 871.788 365.939 874.414 365.936H936.776C939.403 365.939 941.922 367.015 943.779 368.928C945.637 370.84 946.681 373.433 946.684 376.138V421.746C946.681 424.451 945.637 427.044 943.779 428.956C941.922 430.869 939.403 431.945 936.776 431.948ZM874.414 367.137C872.097 367.139 869.875 368.089 868.236 369.776C866.597 371.464 865.675 373.752 865.672 376.138V421.746C865.675 424.133 866.597 426.421 868.236 428.108C869.875 429.796 872.097 430.745 874.414 430.748H936.776C939.094 430.745 941.316 429.796 942.955 428.108C944.594 426.421 945.516 424.133 945.519 421.746V376.138C945.516 373.752 944.594 371.464 942.955 369.776C941.316 368.089 939.094 367.139 936.776 367.137H874.414Z" fill="#F2F2F2"/>
<path d="M831.286 431.948H768.924C766.297 431.945 763.778 430.869 761.921 428.956C760.063 427.044 759.019 424.451 759.016 421.746V376.138C759.019 373.433 760.063 370.84 761.921 368.928C763.778 367.015 766.297 365.939 768.924 365.936H831.286C833.912 365.939 836.431 367.015 838.288 368.928C840.146 370.84 841.191 373.433 841.194 376.138V421.746C841.191 424.451 840.146 427.044 838.288 428.956C836.431 430.869 833.912 431.945 831.286 431.948ZM768.924 367.137C766.606 367.139 764.384 368.089 762.745 369.776C761.106 371.464 760.184 373.752 760.181 376.138V421.746C760.184 424.133 761.106 426.421 762.745 428.108C764.384 429.796 766.606 430.745 768.924 430.748H831.286C833.603 430.745 835.826 429.796 837.464 428.108C839.103 426.421 840.025 424.133 840.028 421.746V376.138C840.025 373.752 839.103 371.464 837.464 369.776C835.826 368.089 833.603 367.139 831.286 367.137H768.924Z" fill="#F2F2F2"/>
<path d="M647.668 240.929L647.391 242.095L945.963 317.311L946.24 316.145L647.668 240.929Z" fill="#F2F2F2"/>
<path d="M943.21 240.91L647.394 316.368L647.674 317.533L943.49 242.075L943.21 240.91Z" fill="#F2F2F2"/>
<path d="M948.433 341.032H665.764C663.214 341.029 660.77 339.985 658.967 338.129C657.164 336.272 656.15 333.756 656.148 331.13V269.32C656.15 266.695 657.164 264.178 658.967 262.321C660.77 260.465 663.214 259.421 665.764 259.418H948.433C950.982 259.421 953.427 260.465 955.23 262.321C957.032 264.178 958.047 266.695 958.049 269.32V331.13C958.047 333.755 957.032 336.272 955.23 338.129C953.427 339.985 950.982 341.029 948.433 341.032V341.032Z" fill="white"/>
<path d="M762.924 368.646L762.208 369.592L836.905 429.59L837.622 428.643L762.924 368.646Z" fill="#F2F2F2"/>
<path d="M837.278 368.647L763.561 429.384L764.289 430.321L838.007 369.584L837.278 368.647Z" fill="#F2F2F2"/>
<path d="M648.108 368.647L647.391 369.593L722.089 429.59L722.806 428.644L648.108 368.647Z" fill="#F2F2F2"/>
<path d="M722.462 368.647L648.745 429.384L649.473 430.321L723.191 369.584L722.462 368.647Z" fill="#F2F2F2"/>
<path d="M868.416 368.646L867.699 369.592L942.397 429.589L943.114 428.643L868.416 368.646Z" fill="#F2F2F2"/>
<path d="M942.769 368.647L869.052 429.384L869.78 430.321L943.497 369.584L942.769 368.647Z" fill="#F2F2F2"/>
<path d="M840.028 475.455H777.666C775.116 475.452 772.672 474.408 770.869 472.552C769.066 470.695 768.052 468.179 768.049 465.554V419.946C768.052 417.321 769.066 414.804 770.869 412.947C772.672 411.091 775.116 410.047 777.666 410.044H840.028C842.577 410.047 845.022 411.091 846.825 412.947C848.627 414.804 849.642 417.321 849.644 419.946V465.554C849.642 468.179 848.627 470.695 846.825 472.552C845.022 474.408 842.577 475.452 840.028 475.455Z" fill="#561262"/>
<path d="M872.599 476.355H744.961C744.807 476.355 744.659 476.292 744.549 476.18C744.44 476.067 744.378 475.914 744.378 475.755C744.378 475.596 744.44 475.443 744.549 475.331C744.659 475.218 744.807 475.155 744.961 475.155H872.599C872.754 475.155 872.902 475.218 873.012 475.331C873.121 475.443 873.182 475.596 873.182 475.755C873.182 475.914 873.121 476.067 873.012 476.18C872.902 476.292 872.754 476.355 872.599 476.355Z" fill="#CCCCCC"/>
<path d="M816.979 439.449H800.66C799.423 439.449 798.237 438.943 797.363 438.043C796.489 437.143 795.997 435.921 795.997 434.648C795.997 433.375 796.489 432.154 797.363 431.254C798.237 430.353 799.423 429.847 800.66 429.847H816.979C818.216 429.847 819.401 430.353 820.276 431.254C821.15 432.154 821.641 433.375 821.641 434.648C821.641 435.921 821.15 437.143 820.276 438.043C819.401 438.943 818.216 439.449 816.979 439.449Z" fill="white"/>
<path d="M826.623 455.652H791.071C789.834 455.652 788.648 455.146 787.774 454.246C786.9 453.345 786.408 452.124 786.408 450.851C786.408 449.578 786.9 448.357 787.774 447.456C788.648 446.556 789.834 446.05 791.071 446.05H826.623C827.86 446.05 829.046 446.556 829.92 447.456C830.794 448.357 831.286 449.578 831.286 450.851C831.286 452.124 830.794 453.345 829.92 454.246C829.046 455.146 827.86 455.652 826.623 455.652Z" fill="white"/>
<path d="M726.378 440.649H664.016C661.466 440.646 659.022 439.602 657.219 437.746C655.416 435.89 654.402 433.373 654.399 430.748V385.14C654.402 382.515 655.416 379.998 657.219 378.141C659.022 376.285 661.466 375.241 664.016 375.238H726.378C728.927 375.241 731.371 376.285 733.174 378.141C734.977 379.998 735.991 382.515 735.994 385.14V430.748C735.991 433.373 734.977 435.89 733.174 437.746C731.371 439.602 728.927 440.646 726.378 440.649Z" fill="#561262"/>
<path d="M703.329 404.643H687.01C685.773 404.643 684.587 404.137 683.713 403.237C682.838 402.337 682.347 401.116 682.347 399.842C682.347 398.569 682.838 397.348 683.713 396.448C684.587 395.547 685.773 395.041 687.01 395.041H703.329C704.565 395.041 705.751 395.547 706.625 396.448C707.5 397.348 707.991 398.569 707.991 399.842C707.991 401.116 707.5 402.337 706.625 403.237C705.751 404.137 704.565 404.643 703.329 404.643Z" fill="white"/>
<path d="M712.973 420.846H677.42C676.184 420.846 674.998 420.34 674.124 419.44C673.249 418.539 672.758 417.318 672.758 416.045C672.758 414.772 673.249 413.551 674.124 412.65C674.998 411.75 676.184 411.244 677.42 411.244H712.973C714.209 411.244 715.395 411.75 716.27 412.65C717.144 413.551 717.635 414.772 717.635 416.045C717.635 417.318 717.144 418.539 716.27 419.44C715.395 420.34 714.209 420.846 712.973 420.846Z" fill="white"/>
<path d="M950.181 458.052H887.819C885.27 458.049 882.825 457.005 881.023 455.149C879.22 453.293 878.206 450.776 878.203 448.151V402.543C878.206 399.918 879.22 397.401 881.023 395.544C882.825 393.688 885.27 392.644 887.819 392.641H950.181C952.731 392.644 955.175 393.688 956.978 395.544C958.781 397.401 959.795 399.918 959.798 402.543V448.151C959.795 450.776 958.781 453.293 956.978 455.149C955.175 457.005 952.731 458.049 950.181 458.052Z" fill="#E6E6E6"/>
<path d="M927.132 422.046H910.813C909.577 422.046 908.391 421.54 907.516 420.64C906.642 419.74 906.151 418.518 906.151 417.245C906.151 415.972 906.642 414.751 907.516 413.851C908.391 412.95 909.577 412.444 910.813 412.444H927.132C928.369 412.444 929.555 412.95 930.429 413.851C931.304 414.751 931.795 415.972 931.795 417.245C931.795 418.518 931.304 419.74 930.429 420.64C929.555 421.54 928.369 422.046 927.132 422.046Z" fill="white"/>
<path d="M936.776 438.249H901.224C899.988 438.249 898.802 437.743 897.927 436.843C897.053 435.942 896.562 434.721 896.562 433.448C896.562 432.175 897.053 430.954 897.927 430.053C898.802 429.153 899.988 428.647 901.224 428.647H936.776C938.013 428.647 939.199 429.153 940.073 430.053C940.948 430.954 941.439 432.175 941.439 433.448C941.439 434.721 940.948 435.942 940.073 436.843C939.199 437.743 938.013 438.249 936.776 438.249Z" fill="white"/>
<path d="M982.753 458.952H855.115C854.96 458.952 854.812 458.889 854.703 458.777C854.593 458.664 854.532 458.511 854.532 458.352C854.532 458.193 854.593 458.04 854.703 457.928C854.812 457.815 854.96 457.752 855.115 457.752H982.753C982.907 457.752 983.056 457.815 983.165 457.928C983.274 458.04 983.336 458.193 983.336 458.352C983.336 458.511 983.274 458.664 983.165 458.777C983.056 458.889 982.907 458.952 982.753 458.952Z" fill="#CCCCCC"/>
<path d="M870.492 339.973V340.732H745.943V339.938L746.613 338.961L786.099 281.563C786.282 281.302 786.523 281.09 786.801 280.943C787.079 280.797 787.387 280.72 787.699 280.72C788.012 280.72 788.32 280.797 788.598 280.943C788.876 281.09 789.116 281.302 789.299 281.563L815.777 320.052L834.625 292.894C834.808 292.635 835.048 292.424 835.326 292.278C835.603 292.132 835.911 292.056 836.222 292.056C836.534 292.056 836.841 292.132 837.118 292.278C837.396 292.424 837.636 292.635 837.819 292.894L869.822 339.002L870.492 339.973Z" fill="#561262"/>
<path d="M745.684 301.784C753.691 301.784 760.181 295.101 760.181 286.857C760.181 278.613 753.691 271.931 745.684 271.931C737.678 271.931 731.188 278.613 731.188 286.857C731.188 295.101 737.678 301.784 745.684 301.784Z" fill="#561262"/>
<path d="M948.433 341.332H665.764C663.137 341.329 660.619 340.253 658.761 338.341C656.904 336.428 655.859 333.835 655.856 331.13V269.32C655.859 266.615 656.904 264.022 658.761 262.109C660.619 260.197 663.137 259.121 665.764 259.118H948.433C951.06 259.121 953.578 260.197 955.436 262.109C957.293 264.022 958.338 266.615 958.341 269.32V331.13C958.338 333.835 957.293 336.428 955.436 338.341C953.578 340.253 951.06 341.329 948.433 341.332ZM665.764 260.318C663.446 260.321 661.224 261.27 659.585 262.958C657.946 264.645 657.024 266.933 657.022 269.32V331.13C657.024 333.517 657.946 335.805 659.585 337.493C661.224 339.18 663.446 340.129 665.764 340.132H948.433C950.751 340.129 952.973 339.18 954.612 337.493C956.251 335.805 957.173 333.517 957.175 331.13V269.32C957.173 266.933 956.251 264.645 954.612 262.958C952.973 261.27 950.751 260.321 948.433 260.318H665.764Z" fill="#3F3D56"/>
</g>
<g clip-path="url(#clip2)">
<path d="M1009.19 863.672H598.417C594.913 863.667 591.554 862.236 589.077 859.691C586.599 857.147 585.205 853.696 585.201 850.098V596.592C585.204 593.955 586.225 591.428 588.04 589.563C589.855 587.699 592.316 586.65 594.883 586.647H1012.55C1015.16 586.65 1017.67 587.717 1019.51 589.614C1021.36 591.51 1022.4 594.082 1022.4 596.764V850.098C1022.4 853.696 1021.01 857.147 1018.53 859.691C1016.05 862.236 1012.69 863.667 1009.19 863.672Z" fill="#F2F2F2"/>
<path d="M611.233 850.098H996.371C999.77 850.098 1003.03 848.711 1005.43 846.242C1007.84 843.774 1009.19 840.426 1009.19 836.935V621.77C1009.19 618.279 1007.84 614.931 1005.43 612.463C1003.03 609.994 999.77 608.608 996.371 608.608H611.233C607.834 608.608 604.574 609.994 602.171 612.463C599.768 614.931 598.417 618.279 598.417 621.77V836.935C598.417 840.426 599.768 843.774 602.171 846.242C604.574 848.711 607.834 850.098 611.233 850.098Z" fill="white"/>
<path d="M1022.22 595.815H585.016V588.905C585.021 585.294 586.42 581.833 588.907 579.28C591.394 576.728 594.764 575.293 598.28 575.29H1008.95C1012.47 575.293 1015.84 576.728 1018.33 579.28C1020.81 581.833 1022.21 585.294 1022.22 588.905V595.815Z" fill="#561262"/>
<path d="M609.121 589.097C611.016 589.097 612.552 587.519 612.552 585.573C612.552 583.627 611.016 582.049 609.121 582.049C607.227 582.049 605.69 583.627 605.69 585.573C605.69 587.519 607.227 589.097 609.121 589.097Z" fill="white"/>
<path d="M622.144 589.097C624.039 589.097 625.575 587.519 625.575 585.573C625.575 583.627 624.039 582.049 622.144 582.049C620.249 582.049 618.713 583.627 618.713 585.573C618.713 587.519 620.249 589.097 622.144 589.097Z" fill="white"/>
<path d="M635.167 589.097C637.062 589.097 638.598 587.519 638.598 585.573C638.598 583.627 637.062 582.049 635.167 582.049C633.272 582.049 631.736 583.627 631.736 585.573C631.736 587.519 633.272 589.097 635.167 589.097Z" fill="white"/>
<path d="M815.819 803.435H781.378C779.36 803.433 777.426 802.609 776 801.144C774.573 799.679 773.771 797.692 773.768 795.62V760.246C773.771 758.174 774.573 756.187 776 754.722C777.426 753.257 779.36 752.433 781.378 752.431H815.819C817.837 752.433 819.771 753.257 821.197 754.722C822.624 756.187 823.426 758.174 823.429 760.246V795.62C823.426 797.692 822.624 799.679 821.197 801.144C819.771 802.609 817.837 803.433 815.819 803.435V803.435ZM781.378 754.076C779.785 754.078 778.258 754.728 777.132 755.885C776.006 757.042 775.372 758.61 775.37 760.246V795.62C775.372 797.256 776.006 798.824 777.132 799.981C778.258 801.138 779.785 801.788 781.378 801.79H815.819C817.412 801.788 818.939 801.138 820.065 799.981C821.191 798.824 821.825 797.256 821.827 795.62V760.246C821.825 758.61 821.191 757.042 820.065 755.885C818.939 754.728 817.412 754.078 815.819 754.076H781.378Z" fill="#CCCCCC"/>
<path d="M809.011 793.564H788.186C787.549 793.563 786.938 793.303 786.488 792.84C786.037 792.377 785.784 791.75 785.783 791.096V764.77C785.784 764.116 786.037 763.489 786.488 763.026C786.938 762.563 787.549 762.303 788.186 762.302H803.276C803.823 762.303 804.354 762.495 804.781 762.847L810.516 767.58C810.797 767.811 811.024 768.104 811.179 768.437C811.335 768.77 811.415 769.135 811.414 769.504V791.096C811.413 791.75 811.16 792.377 810.71 792.84C810.259 793.303 809.648 793.563 809.011 793.564V793.564ZM788.186 763.948C787.974 763.948 787.77 764.035 787.62 764.189C787.47 764.343 787.385 764.552 787.385 764.77V791.096C787.385 791.314 787.47 791.523 787.62 791.677C787.77 791.831 787.974 791.918 788.186 791.918H809.011C809.224 791.918 809.427 791.831 809.577 791.677C809.727 791.523 809.812 791.314 809.812 791.096V769.504C809.812 769.381 809.786 769.259 809.734 769.148C809.682 769.037 809.607 768.94 809.513 768.863L803.777 764.129C803.635 764.012 803.458 763.948 803.276 763.948H788.186Z" fill="#CCCCCC"/>
<path d="M805.006 773.82H792.191C791.978 773.82 791.775 773.733 791.624 773.579C791.474 773.424 791.39 773.215 791.39 772.997C791.39 772.779 791.474 772.57 791.624 772.415C791.775 772.261 791.978 772.174 792.191 772.174H805.006C805.219 772.174 805.422 772.261 805.573 772.415C805.723 772.57 805.807 772.779 805.807 772.997C805.807 773.215 805.723 773.424 805.573 773.579C805.422 773.733 805.219 773.82 805.006 773.82Z" fill="#CCCCCC"/>
<path d="M805.006 778.756H792.191C791.978 778.756 791.775 778.669 791.624 778.515C791.474 778.36 791.39 778.151 791.39 777.933C791.39 777.715 791.474 777.506 791.624 777.351C791.775 777.197 791.978 777.11 792.191 777.11H805.006C805.219 777.11 805.422 777.197 805.573 777.351C805.723 777.506 805.807 777.715 805.807 777.933C805.807 778.151 805.723 778.36 805.573 778.515C805.422 778.669 805.219 778.756 805.006 778.756Z" fill="#CCCCCC"/>
<path d="M805.006 783.692H792.191C791.978 783.692 791.775 783.605 791.624 783.451C791.474 783.296 791.39 783.087 791.39 782.869C791.39 782.651 791.474 782.442 791.624 782.287C791.775 782.133 791.978 782.046 792.191 782.046H805.006C805.219 782.046 805.422 782.133 805.573 782.287C805.723 782.442 805.807 782.651 805.807 782.869C805.807 783.087 805.723 783.296 805.573 783.451C805.422 783.605 805.219 783.692 805.006 783.692Z" fill="#CCCCCC"/>
<path d="M897.519 803.435H863.077C861.059 803.433 859.125 802.609 857.699 801.144C856.272 799.679 855.47 797.692 855.468 795.62V760.246C855.47 758.174 856.272 756.187 857.699 754.722C859.125 753.257 861.059 752.433 863.077 752.431H897.519C899.536 752.433 901.47 753.257 902.897 754.722C904.323 756.187 905.126 758.174 905.128 760.246V795.62C905.126 797.692 904.323 799.679 902.897 801.144C901.47 802.609 899.536 803.433 897.519 803.435V803.435ZM863.077 754.076C861.484 754.078 859.957 754.728 858.831 755.885C857.705 757.042 857.071 758.61 857.07 760.246V795.62C857.071 797.256 857.705 798.824 858.831 799.981C859.957 801.138 861.484 801.788 863.077 801.79H897.519C899.111 801.788 900.638 801.138 901.764 799.981C902.891 798.824 903.524 797.256 903.526 795.62V760.246C903.524 758.61 902.891 757.042 901.764 755.885C900.638 754.728 899.111 754.078 897.519 754.076H863.077Z" fill="#CCCCCC"/>
<path d="M891.511 786.982H869.084C868.447 786.982 867.836 786.721 867.386 786.259C866.935 785.796 866.682 785.169 866.681 784.514V771.352C866.682 770.697 866.935 770.07 867.386 769.607C867.836 769.145 868.447 768.884 869.084 768.884H891.511C892.148 768.884 892.759 769.145 893.21 769.607C893.66 770.07 893.914 770.697 893.914 771.352V784.514C893.914 785.169 893.66 785.796 893.21 786.259C892.759 786.721 892.148 786.982 891.511 786.982V786.982ZM869.084 770.529C868.872 770.529 868.668 770.616 868.518 770.77C868.368 770.924 868.283 771.134 868.283 771.352V784.514C868.283 784.732 868.368 784.941 868.518 785.096C868.668 785.25 868.872 785.337 869.084 785.337H891.511C891.724 785.337 891.927 785.25 892.077 785.096C892.228 784.941 892.312 784.732 892.312 784.514V771.352C892.312 771.134 892.228 770.924 892.077 770.77C891.927 770.616 891.724 770.529 891.511 770.529H869.084Z" fill="#CCCCCC"/>
<path d="M880.298 780.103C879.848 780.104 879.406 779.975 879.024 779.731L867.057 772.049C866.878 771.933 866.75 771.749 866.703 771.537C866.655 771.324 866.692 771.101 866.804 770.916C866.917 770.731 867.096 770.6 867.303 770.551C867.509 770.502 867.727 770.539 867.907 770.654L879.874 778.335C880.001 778.417 880.148 778.46 880.298 778.46C880.448 778.46 880.595 778.417 880.722 778.335L892.688 770.654C892.869 770.539 893.086 770.502 893.293 770.551C893.499 770.6 893.679 770.731 893.791 770.916C893.904 771.101 893.94 771.324 893.893 771.537C893.845 771.749 893.718 771.933 893.538 772.049L881.572 779.731C881.189 779.975 880.748 780.104 880.298 780.103V780.103Z" fill="#CCCCCC"/>
<path d="M734.12 803.435H699.678C697.661 803.433 695.727 802.609 694.3 801.144C692.874 799.679 692.071 797.692 692.069 795.62V760.246C692.071 758.174 692.874 756.187 694.3 754.722C695.727 753.257 697.661 752.433 699.678 752.431H734.12C736.138 752.433 738.072 753.257 739.498 754.722C740.925 756.187 741.727 758.174 741.729 760.246V795.62C741.727 797.692 740.925 799.679 739.498 801.144C738.072 802.609 736.138 803.433 734.12 803.435V803.435ZM699.678 754.076C698.086 754.078 696.559 754.728 695.433 755.885C694.306 757.042 693.673 758.61 693.671 760.246V795.62C693.673 797.256 694.306 798.824 695.433 799.981C696.559 801.138 698.086 801.788 699.678 801.79H734.12C735.713 801.788 737.24 801.138 738.366 799.981C739.492 798.824 740.126 797.256 740.128 795.62V760.246C740.126 758.61 739.492 757.042 738.366 755.885C737.24 754.728 735.713 754.078 734.12 754.076H699.678Z" fill="#CCCCCC"/>
<path d="M728.113 786.982H705.686C705.049 786.982 704.438 786.721 703.987 786.259C703.537 785.796 703.283 785.169 703.283 784.514V771.352C703.283 770.697 703.537 770.07 703.987 769.607C704.438 769.145 705.049 768.884 705.686 768.884H728.113C728.75 768.884 729.361 769.145 729.811 769.607C730.262 770.07 730.515 770.697 730.516 771.352V784.514C730.515 785.169 730.262 785.796 729.811 786.259C729.361 786.721 728.75 786.982 728.113 786.982V786.982ZM705.686 770.529C705.473 770.529 705.27 770.616 705.12 770.77C704.969 770.924 704.885 771.134 704.885 771.352V784.514C704.885 784.732 704.969 784.941 705.12 785.096C705.27 785.25 705.473 785.337 705.686 785.337H728.113C728.325 785.337 728.529 785.25 728.679 785.096C728.829 784.941 728.914 784.732 728.914 784.514V771.352C728.914 771.134 728.829 770.924 728.679 770.77C728.529 770.616 728.325 770.529 728.113 770.529H705.686Z" fill="#CCCCCC"/>
<path d="M724.558 786.982H708.439C708.158 786.982 707.882 786.906 707.638 786.762C707.395 786.618 707.193 786.41 707.052 786.16C706.911 785.91 706.837 785.626 706.837 785.337C706.837 785.048 706.912 784.764 707.052 784.514L711.907 775.876C712.048 775.626 712.25 775.418 712.494 775.274C712.737 775.13 713.014 775.054 713.295 775.054C713.576 775.054 713.852 775.13 714.096 775.274C714.339 775.418 714.542 775.626 714.682 775.876L717.818 781.455L719.635 778.223C719.775 777.973 719.978 777.765 720.221 777.621C720.465 777.476 720.741 777.4 721.022 777.4C721.303 777.4 721.58 777.476 721.823 777.621C722.067 777.765 722.269 777.973 722.41 778.223L725.946 784.514C726.086 784.764 726.16 785.048 726.16 785.337C726.16 785.626 726.086 785.91 725.946 786.16C725.805 786.41 725.603 786.618 725.359 786.762C725.116 786.906 724.839 786.982 724.558 786.982H724.558ZM724.558 785.337L721.022 779.046L718.512 783.512C718.442 783.637 718.34 783.741 718.219 783.813C718.097 783.885 717.959 783.923 717.818 783.923V783.923C717.677 783.923 717.539 783.885 717.417 783.813C717.296 783.741 717.195 783.637 717.124 783.512L713.295 776.699L708.439 785.337H724.558Z" fill="#CCCCCC"/>
<path d="M725.71 775.465C726.595 775.465 727.312 774.728 727.312 773.82C727.312 772.911 726.595 772.174 725.71 772.174C724.825 772.174 724.108 772.911 724.108 773.82C724.108 774.728 724.825 775.465 725.71 775.465Z" fill="#CCCCCC"/>
<path d="M1025.93 710.799H782.437C778.933 710.795 775.574 709.363 773.097 706.818C770.619 704.274 769.225 700.824 769.221 697.225V643.752C769.225 640.153 770.619 636.703 773.097 634.158C775.574 631.613 778.933 630.182 782.437 630.178H1025.93C1029.44 630.182 1032.8 631.614 1035.27 634.158C1037.75 636.703 1039.14 640.153 1039.15 643.752V697.225C1039.14 700.823 1037.75 704.274 1035.27 706.818C1032.8 709.363 1029.44 710.794 1025.93 710.799V710.799Z" fill="white"/>
<path d="M1025.93 711.21H782.437C778.827 711.206 775.366 709.731 772.813 707.109C770.261 704.487 768.825 700.933 768.821 697.225V643.752C768.825 640.044 770.261 636.489 772.813 633.868C775.366 631.246 778.827 629.771 782.437 629.767H1025.93C1029.54 629.771 1033 631.246 1035.56 633.868C1038.11 636.489 1039.55 640.044 1039.55 643.752V697.225C1039.55 700.933 1038.11 704.487 1035.56 707.109C1033 709.731 1029.54 711.206 1025.93 711.21ZM782.437 631.412C779.252 631.416 776.198 632.717 773.946 635.03C771.693 637.344 770.426 640.48 770.423 643.752V697.225C770.426 700.496 771.693 703.633 773.946 705.946C776.198 708.26 779.252 709.561 782.437 709.565H1025.93C1029.12 709.561 1032.17 708.26 1034.42 705.946C1036.68 703.633 1037.94 700.496 1037.95 697.225V643.752C1037.94 640.48 1036.68 637.344 1034.42 635.03C1032.17 632.717 1029.12 631.416 1025.93 631.412H782.437Z" fill="#3F3D56"/>
<path d="M996.297 697.636H812.073C808.569 697.632 805.21 696.201 802.732 693.656C800.255 691.111 798.861 687.661 798.857 684.062V656.092C798.861 652.493 800.255 649.043 802.732 646.498C805.21 643.953 808.569 642.522 812.073 642.518H996.297C999.801 642.522 1003.16 643.953 1005.64 646.498C1008.12 649.043 1009.51 652.493 1009.51 656.092V684.062C1009.51 687.661 1008.12 691.111 1005.64 693.656C1003.16 696.201 999.801 697.632 996.297 697.636V697.636Z" fill="#F2F2F2"/>
<path d="M851.717 682.56C860.446 682.56 867.522 675.293 867.522 666.327C867.522 657.362 860.446 650.094 851.717 650.094C842.988 650.094 835.912 657.362 835.912 666.327C835.912 675.293 842.988 682.56 851.717 682.56Z" fill="#FF6584"/>
<path d="M984.848 695.998L962.539 676.781L940.615 657.896C940.037 657.397 939.305 657.125 938.55 657.126C937.795 657.128 937.065 657.403 936.488 657.904L914.635 676.876L909.297 681.51L901.249 674.577L876.79 653.508C876.211 653.01 875.48 652.737 874.725 652.739C873.97 652.74 873.239 653.016 872.663 653.516L848.283 674.682L823.519 696.181C823.394 696.29 823.304 696.436 823.262 696.599C823.22 696.762 823.227 696.934 823.284 697.093C823.341 697.251 823.443 697.388 823.578 697.484C823.713 697.581 823.873 697.632 824.038 697.632L874.809 697.531L890.879 697.5L890.722 697.636L938.626 697.541L984.335 697.451C984.5 697.451 984.66 697.399 984.794 697.302C984.929 697.205 985.031 697.067 985.087 696.909C985.143 696.75 985.15 696.578 985.107 696.415C985.065 696.252 984.974 696.106 984.848 695.998Z" fill="#3F3D56"/>
<path d="M650.419 730.131H615.977C613.959 730.129 612.025 729.305 610.599 727.84C609.172 726.374 608.37 724.388 608.368 722.316V686.942C608.37 684.87 609.172 682.883 610.599 681.418C612.025 679.953 613.959 679.129 615.977 679.126H650.419C652.436 679.129 654.37 679.953 655.797 681.418C657.223 682.883 658.026 684.87 658.028 686.942V722.316C658.026 724.388 657.223 726.374 655.797 727.84C654.37 729.305 652.436 730.129 650.419 730.131V730.131Z" fill="white"/>
<path d="M650.419 730.131H615.977C613.959 730.129 612.025 729.305 610.599 727.84C609.172 726.374 608.37 724.388 608.368 722.316V686.942C608.37 684.87 609.172 682.883 610.599 681.418C612.025 679.953 613.959 679.129 615.977 679.126H650.419C652.436 679.129 654.37 679.953 655.797 681.418C657.223 682.883 658.026 684.87 658.028 686.942V722.316C658.026 724.388 657.223 726.374 655.797 727.84C654.37 729.305 652.436 730.129 650.419 730.131V730.131ZM615.977 680.772C614.384 680.773 612.857 681.424 611.731 682.581C610.605 683.738 609.971 685.306 609.969 686.942V722.316C609.971 723.952 610.605 725.52 611.731 726.677C612.857 727.833 614.384 728.484 615.977 728.486H650.419C652.011 728.484 653.538 727.833 654.664 726.677C655.791 725.52 656.424 723.952 656.426 722.316V686.942C656.424 685.306 655.791 683.738 654.664 682.581C653.538 681.424 652.011 680.773 650.419 680.772H615.977Z" fill="#3F3D56"/>
<path d="M644.411 715.735H621.984C621.347 715.734 620.736 715.474 620.286 715.011C619.835 714.548 619.582 713.921 619.581 713.267V695.991C619.582 695.337 619.835 694.709 620.286 694.247C620.736 693.784 621.347 693.524 621.984 693.523H628.298C628.708 693.521 629.112 693.629 629.471 693.834C629.829 694.04 630.13 694.337 630.344 694.697L632.105 697.636H644.411C645.048 697.637 645.659 697.897 646.11 698.36C646.56 698.822 646.814 699.45 646.814 700.104V713.267C646.814 713.921 646.56 714.548 646.11 715.011C645.659 715.474 645.048 715.734 644.411 715.735V715.735Z" fill="#561262"/>
</g>
<g clip-path="url(#clip3)">
<path d="M576.538 93.8057H114.635C112.876 93.8073 111.189 94.5258 109.945 95.8033C108.701 97.0808 108.002 98.813 108 100.62V422.033C108.002 423.839 108.701 425.571 109.945 426.849C111.189 428.126 112.876 428.845 114.635 428.846H576.538C577.497 428.847 578.445 428.633 579.316 428.22C580.187 427.807 580.961 427.205 581.583 426.455C581.636 426.397 581.684 426.334 581.728 426.268C582.124 425.771 582.444 425.215 582.679 424.619C583.013 423.8 583.183 422.92 583.181 422.033V100.62C583.179 98.8118 582.478 97.0786 581.233 95.8009C579.987 94.5232 578.298 93.8056 576.538 93.8057V93.8057ZM581.286 422.033C581.287 422.983 581.014 423.913 580.502 424.705C580.047 425.402 579.43 425.972 578.707 426.362C578.036 426.717 577.292 426.902 576.538 426.901H114.635C113.378 426.899 112.174 426.386 111.285 425.473C110.396 424.561 109.896 423.323 109.895 422.033V100.62C109.896 99.3291 110.396 98.0917 111.285 97.1791C112.174 96.2665 113.378 95.753 114.635 95.7515H576.538C577.796 95.7513 579.003 96.2639 579.893 97.1767C580.783 98.0895 581.284 99.3278 581.286 100.62V422.033Z" fill="#3F3D56"/>
<path d="M582.229 121.116H108.946V123.064H582.229V121.116Z" fill="#3F3D56"/>
<path d="M125.07 114.259C128.212 114.259 130.76 111.643 130.76 108.415C130.76 105.188 128.212 102.571 125.07 102.571C121.927 102.571 119.379 105.188 119.379 108.415C119.379 111.643 121.927 114.259 125.07 114.259Z" fill="#3F3D56"/>
<path d="M141.431 114.259C144.573 114.259 147.121 111.643 147.121 108.415C147.121 105.188 144.573 102.571 141.431 102.571C138.288 102.571 135.74 105.188 135.74 108.415C135.74 111.643 138.288 114.259 141.431 114.259Z" fill="#3F3D56"/>
<path d="M157.792 114.259C160.934 114.259 163.482 111.643 163.482 108.415C163.482 105.188 160.934 102.571 157.792 102.571C154.649 102.571 152.101 105.188 152.101 108.415C152.101 111.643 154.649 114.259 157.792 114.259Z" fill="#3F3D56"/>
<path d="M464.372 166.206H226.953C224.329 166.206 221.813 165.135 219.958 163.23C218.102 161.325 217.06 158.741 217.06 156.047C217.06 153.353 218.102 150.769 219.958 148.864C221.813 146.959 224.329 145.889 226.953 145.889H464.372C466.996 145.889 469.512 146.959 471.367 148.864C473.222 150.769 474.265 153.353 474.265 156.047C474.265 158.741 473.222 161.325 471.367 163.23C469.512 165.135 466.996 166.206 464.372 166.206V166.206ZM226.953 147.452C224.733 147.452 222.604 148.357 221.034 149.969C219.464 151.581 218.582 153.767 218.582 156.047C218.582 158.327 219.464 160.513 221.034 162.125C222.604 163.737 224.733 164.643 226.953 164.643H464.372C466.592 164.643 468.721 163.737 470.291 162.125C471.861 160.513 472.743 158.327 472.743 156.047C472.743 153.767 471.861 151.581 470.291 149.969C468.721 148.357 466.592 147.452 464.372 147.452H226.953Z" fill="#3F3D56"/>
<path d="M246.666 285.464H155.351C151.921 285.46 148.633 284.059 146.207 281.569C143.782 279.078 142.418 275.702 142.414 272.18V228.42C142.418 224.898 143.782 221.522 146.207 219.031C148.633 216.541 151.921 215.14 155.351 215.136H246.666C250.095 215.14 253.384 216.541 255.809 219.031C258.234 221.522 259.598 224.898 259.602 228.42V272.18C259.598 275.702 258.234 279.078 255.809 281.569C253.384 284.059 250.095 285.46 246.666 285.464V285.464Z" fill="#561262"/>
<path d="M391.248 285.464H299.933C296.503 285.46 293.215 284.059 290.79 281.569C288.365 279.078 287 275.702 286.997 272.18V228.42C287 224.898 288.365 221.522 290.79 219.031C293.215 216.541 296.503 215.14 299.933 215.136H391.248C394.678 215.14 397.966 216.541 400.391 219.031C402.816 221.522 404.181 224.898 404.184 228.42V272.18C404.181 275.702 402.816 279.078 400.391 281.569C397.966 284.059 394.678 285.46 391.248 285.464V285.464Z" fill="#561262"/>
<path d="M535.83 285.464H444.515C441.086 285.46 437.797 284.059 435.372 281.569C432.947 279.078 431.583 275.702 431.579 272.18V228.42C431.583 224.898 432.947 221.522 435.372 219.031C437.797 216.541 441.086 215.14 444.515 215.136H535.83C539.26 215.14 542.548 216.541 544.973 219.031C547.399 221.522 548.763 224.898 548.767 228.42V272.18C548.763 275.702 547.399 279.078 544.973 281.569C542.548 284.059 539.26 285.46 535.83 285.464V285.464Z" fill="#561262"/>
<path d="M246.666 377.671H155.351C151.921 377.667 148.633 376.266 146.207 373.776C143.782 371.286 142.418 367.909 142.414 364.387V320.628C142.418 317.106 143.782 313.729 146.207 311.239C148.633 308.748 151.921 307.348 155.351 307.344H246.666C250.095 307.348 253.384 308.748 255.809 311.239C258.234 313.729 259.598 317.106 259.602 320.628V364.387C259.598 367.909 258.234 371.286 255.809 373.776C253.384 376.266 250.095 377.667 246.666 377.671V377.671Z" fill="#561262"/>
<path d="M391.248 377.671H299.933C296.503 377.667 293.215 376.266 290.79 373.776C288.365 371.286 287 367.909 286.997 364.387V320.628C287 317.106 288.365 313.729 290.79 311.239C293.215 308.748 296.503 307.348 299.933 307.344H391.248C394.678 307.348 397.966 308.748 400.391 311.239C402.816 313.729 404.181 317.106 404.184 320.628V364.387C404.181 367.909 402.816 371.286 400.391 373.776C397.966 376.266 394.678 377.667 391.248 377.671V377.671Z" fill="#561262"/>
<path d="M535.378 377.724H444.063C440.633 377.72 437.345 376.319 434.92 373.829C432.495 371.338 431.131 367.962 431.127 364.44V320.681C431.131 317.159 432.495 313.782 434.92 311.292C437.345 308.801 440.633 307.4 444.063 307.396H535.378C538.808 307.4 542.096 308.801 544.521 311.292C546.946 313.782 548.311 317.159 548.314 320.681V364.44C548.311 367.962 546.946 371.338 544.521 373.829C542.096 376.319 538.808 377.72 535.378 377.724V377.724Z" fill="#561262"/>
</g>
</g>
<defs>
<clipPath id="clip0">
<rect width="236.317" height="485.8" fill="white" transform="translate(279.209 518.075)"/>
</clipPath>
<clipPath id="clip1">
<rect width="367.737" height="286.275" fill="white" transform="translate(615.598 190.904)"/>
</clipPath>
<clipPath id="clip2">
<rect width="455.753" height="288.754" fill="white" transform="translate(584.25 575.082)"/>
</clipPath>
<clipPath id="clip3">
<rect width="476.25" height="335.846" fill="white" transform="translate(108 93)"/>
</clipPath>
</defs>
</svg>
