<svg width="602" height="655" viewBox="0 0 602 655" fill="none" xmlns="http://www.w3.org/2000/svg">
<mask id="mask0" mask-type="alpha" maskUnits="userSpaceOnUse" x="0" y="-96" width="699" height="751">
<path fill-rule="evenodd" clip-rule="evenodd" d="M332.795 -91.4123C429.364 -80.9852 570.145 -117.611 633.5 -44C701.11 34.555 708.704 221.709 690.029 323.65C670.701 429.157 571.673 491.453 478.467 544.565C372.757 604.802 249.115 695.526 143.536 635.06C39.7244 575.605 81.4047 422.095 59.348 304.529C39.2343 197.32 -38.4312 85.3213 23.5587 -4.43781C87.5717 -97.1264 220.788 -103.506 332.795 -91.4123Z" fill="black"/>
</mask>
<g mask="url(#mask0)">
<path fill-rule="evenodd" clip-rule="evenodd" d="M332.795 -91.4123C429.364 -80.9852 570.145 -117.611 633.5 -44C701.11 34.555 708.704 221.709 690.029 323.65C670.701 429.157 571.673 491.453 478.467 544.565C372.757 604.802 249.115 695.526 143.536 635.06C39.7244 575.605 81.4047 422.095 59.348 304.529C39.2343 197.32 -38.4312 85.3213 23.5587 -4.43781C87.5717 -97.1264 220.788 -103.506 332.795 -91.4123Z" fill="white"/>
<path d="M273.475 347.957H271.324V289.079C271.324 280.04 267.73 271.372 261.334 264.981C254.938 258.59 246.262 255 237.217 255H112.366C103.32 255 94.6451 258.59 88.2488 264.981C81.8525 271.372 78.259 280.04 78.259 289.079V612.095C78.259 621.133 81.8525 629.801 88.2488 636.192C94.6451 642.583 103.32 646.174 112.366 646.174H237.217C246.262 646.174 254.937 642.583 261.334 636.192C267.73 629.801 271.323 621.133 271.323 612.095V389.868H273.474L273.475 347.957Z" fill="#E6E6E6"/>
<path d="M238.593 263.863H222.297C223.046 265.699 223.333 267.691 223.13 269.663C222.927 271.636 222.242 273.528 221.135 275.174C220.028 276.819 218.533 278.168 216.782 279.1C215.03 280.032 213.076 280.52 211.092 280.52H139.566C137.582 280.52 135.628 280.032 133.877 279.1C132.125 278.167 130.63 276.819 129.524 275.173C128.417 273.528 127.732 271.635 127.529 269.663C127.327 267.691 127.613 265.699 128.362 263.863H113.141C106.386 263.863 99.9071 266.544 95.1304 271.317C90.3537 276.089 87.6701 282.563 87.6701 289.312V611.86C87.6701 618.61 90.3537 625.083 95.1304 629.855C99.9071 634.628 106.386 637.309 113.141 637.309H238.593C245.348 637.309 251.827 634.628 256.603 629.855C261.38 625.083 264.064 618.61 264.064 611.86V289.312C264.063 282.562 261.38 276.089 256.603 271.317C251.826 266.544 245.348 263.863 238.593 263.863H238.593Z" fill="white"/>
<path d="M175.867 454.656C164.177 454.656 152.751 451.192 143.031 444.703C133.312 438.215 125.737 428.992 121.263 418.201C116.79 407.411 115.619 395.537 117.9 384.082C120.18 372.627 125.809 362.104 134.075 353.846C142.341 345.587 152.872 339.963 164.337 337.684C175.801 335.406 187.685 336.575 198.484 341.045C209.284 345.514 218.515 353.083 225.009 362.794C231.503 372.506 234.969 383.923 234.969 395.603C234.952 411.259 228.719 426.269 217.639 437.34C206.559 448.411 191.536 454.638 175.867 454.656ZM175.867 337.674C164.4 337.674 153.191 341.072 143.657 347.437C134.122 353.802 126.691 362.849 122.303 373.434C117.915 384.019 116.767 395.667 119.004 406.904C121.241 418.141 126.763 428.463 134.871 436.564C142.979 444.665 153.31 450.183 164.556 452.418C175.803 454.653 187.46 453.506 198.054 449.121C208.647 444.737 217.702 437.312 224.073 427.786C230.443 418.26 233.844 407.06 233.844 395.603C233.826 380.244 227.712 365.52 216.843 354.66C205.974 343.8 191.238 337.692 175.867 337.674Z" fill="#3F3D56"/>
<path d="M197.574 378.448C202.636 374.174 205.71 367.423 204.904 360.851C204.098 354.279 199.104 348.237 192.626 346.842C186.148 345.446 178.763 349.309 176.796 355.632C175.713 343.442 174.465 330.741 167.979 320.361C162.106 310.961 151.933 304.235 140.908 303.032C129.883 301.829 118.276 306.373 111.4 315.068C104.524 323.762 102.841 336.402 107.656 346.384C111.204 353.737 117.739 359.21 124.587 363.662C146.434 377.866 173.535 382.665 199.322 378.873L197.574 378.448Z" fill="#E6E6E6"/>
<path d="M122.302 306.625C131.399 314.028 139.744 322.308 147.218 331.345C158.913 345.44 168.377 361.242 175.28 378.202C175.786 379.439 173.775 379.978 173.275 378.754C161.981 351.191 143.95 326.897 120.832 308.094C119.794 307.25 121.273 305.787 122.302 306.625Z" fill="white"/>
<path d="M125.398 512.584C128.817 512.584 131.589 509.814 131.589 506.397C131.589 502.981 128.817 500.211 125.398 500.211C121.978 500.211 119.206 502.981 119.206 506.397C119.206 509.814 121.978 512.584 125.398 512.584Z" fill="#3F3D56"/>
<path d="M228.025 510.897H149.221C148.027 510.897 146.882 510.423 146.037 509.579C145.193 508.735 144.718 507.591 144.718 506.397C144.718 505.204 145.193 504.06 146.037 503.216C146.882 502.372 148.027 501.898 149.221 501.898H228.025C229.219 501.898 230.364 502.372 231.209 503.216C232.053 504.06 232.528 505.204 232.528 506.397C232.528 507.591 232.053 508.735 231.209 509.579C230.364 510.423 229.219 510.897 228.025 510.897Z" fill="#CCCCCC"/>
<path d="M203.584 510.951H148.896C147.687 510.951 146.528 510.471 145.673 509.617C144.818 508.763 144.338 507.605 144.338 506.397C144.338 505.19 144.818 504.032 145.673 503.178C146.528 502.324 147.687 501.844 148.896 501.844H203.584C204.792 501.844 205.952 502.324 206.806 503.178C207.661 504.032 208.141 505.19 208.141 506.397C208.141 507.605 207.661 508.763 206.806 509.617C205.952 510.471 204.792 510.951 203.584 510.951Z" fill="#561262"/>
<path d="M125.398 539.58C128.817 539.58 131.589 536.81 131.589 533.393C131.589 529.976 128.817 527.207 125.398 527.207C121.978 527.207 119.206 529.976 119.206 533.393C119.206 536.81 121.978 539.58 125.398 539.58Z" fill="#3F3D56"/>
<path d="M228.025 537.892H149.221C148.027 537.892 146.882 537.418 146.037 536.575C145.193 535.731 144.718 534.586 144.718 533.393C144.718 532.2 145.193 531.055 146.037 530.212C146.882 529.368 148.027 528.894 149.221 528.894H228.025C229.219 528.894 230.364 529.368 231.209 530.212C232.053 531.055 232.528 532.2 232.528 533.393C232.528 534.586 232.053 535.731 231.209 536.575C230.364 537.418 229.219 537.892 228.025 537.892Z" fill="#CCCCCC"/>
<path d="M125.398 566.575C128.817 566.575 131.589 563.806 131.589 560.389C131.589 556.972 128.817 554.202 125.398 554.202C121.978 554.202 119.206 556.972 119.206 560.389C119.206 563.806 121.978 566.575 125.398 566.575Z" fill="#3F3D56"/>
<path d="M228.025 564.888H149.221C148.027 564.888 146.882 564.414 146.037 563.57C145.193 562.727 144.718 561.582 144.718 560.389C144.718 559.196 145.193 558.051 146.037 557.207C146.882 556.364 148.027 555.89 149.221 555.89H228.025C229.219 555.89 230.364 556.364 231.209 557.207C232.053 558.051 232.528 559.196 232.528 560.389C232.528 561.582 232.053 562.727 231.209 563.57C230.364 564.414 229.219 564.888 228.025 564.888Z" fill="#CCCCCC"/>
<path d="M185.572 537.947H148.896C147.687 537.947 146.528 537.467 145.673 536.613C144.818 535.759 144.338 534.601 144.338 533.393C144.338 532.185 144.818 531.027 145.673 530.173C146.528 529.319 147.687 528.84 148.896 528.84H185.572C186.78 528.84 187.939 529.319 188.794 530.173C189.649 531.027 190.129 532.185 190.129 533.393C190.129 534.601 189.649 535.759 188.794 536.613C187.939 537.467 186.78 537.947 185.572 537.947Z" fill="#561262"/>
<path d="M218.219 564.942H148.896C147.687 564.942 146.528 564.463 145.673 563.609C144.818 562.755 144.338 561.596 144.338 560.389C144.338 559.181 144.818 558.023 145.673 557.169C146.528 556.315 147.687 555.835 148.896 555.835H218.219C219.427 555.835 220.587 556.315 221.441 557.169C222.296 558.023 222.776 559.181 222.776 560.389C222.776 561.596 222.296 562.755 221.441 563.609C220.587 564.463 219.427 564.942 218.219 564.942Z" fill="#561262"/>
<path d="M207.159 386.42H199.423V363.578C199.424 362.907 199.691 362.264 200.166 361.79C200.64 361.315 201.284 361.048 201.956 361.048H204.626C205.298 361.048 205.942 361.315 206.416 361.79C206.891 362.264 207.158 362.907 207.159 363.578V386.42Z" fill="#3F3D56"/>
<path d="M211.849 425.29H137.898L137.633 383.646C137.63 383.002 137.757 382.365 138.005 381.771C138.253 381.178 138.619 380.64 139.079 380.19L157.656 362.111C158.537 361.25 159.718 360.765 160.951 360.755L192.043 360.471C192.748 360.467 193.445 360.617 194.086 360.912C194.726 361.206 195.294 361.638 195.749 362.176L195.752 362.179L210.52 380.275C211.379 381.329 211.848 382.647 211.849 384.006L211.849 425.29Z" fill="#3F3D56"/>
<path d="M211.849 425.29H172.109V387.968C172.109 386.831 172.515 385.731 173.253 384.866L190.52 364.639V364.639C190.968 364.113 191.526 363.69 192.155 363.4C192.783 363.11 193.467 362.96 194.16 362.961H194.178C194.873 362.963 195.56 363.117 196.189 363.411C196.819 363.706 197.377 364.134 197.823 364.666L210.728 380.017C211.452 380.878 211.849 381.967 211.849 383.092V425.29Z" fill="#561262"/>
<path d="M194.992 410.955H189.242C188.869 410.955 188.511 410.806 188.248 410.543C187.984 410.279 187.835 409.922 187.835 409.549V404.732C187.835 404.36 187.984 404.002 188.248 403.739C188.511 403.475 188.869 403.327 189.242 403.326H194.992C195.365 403.327 195.723 403.475 195.986 403.739C196.25 404.002 196.399 404.36 196.399 404.732V409.549C196.399 409.922 196.25 410.279 195.986 410.543C195.723 410.806 195.365 410.955 194.992 410.955Z" fill="white"/>
<path d="M194.992 398.612H189.242C188.869 398.612 188.511 398.464 188.248 398.2C187.984 397.936 187.835 397.579 187.835 397.206V392.502C187.835 392.129 187.984 391.771 188.248 391.508C188.511 391.244 188.869 391.096 189.242 391.096H194.992C195.365 391.096 195.723 391.244 195.986 391.508C196.25 391.771 196.399 392.129 196.399 392.502V397.206C196.399 397.579 196.25 397.936 195.986 398.2C195.723 398.464 195.365 398.612 194.992 398.612Z" fill="white"/>
<path d="M159.434 409.08H153.684C153.311 409.08 152.954 408.931 152.69 408.668C152.426 408.404 152.278 408.047 152.277 407.674V402.858C152.278 402.485 152.426 402.127 152.69 401.864C152.954 401.6 153.311 401.452 153.684 401.452H159.434C159.807 401.452 160.165 401.6 160.428 401.864C160.692 402.127 160.841 402.485 160.841 402.858V407.674C160.841 408.047 160.692 408.404 160.428 408.668C160.165 408.931 159.807 409.08 159.434 409.08Z" fill="white"/>
<path d="M159.434 396.737H153.684C153.311 396.737 152.954 396.589 152.69 396.325C152.426 396.061 152.278 395.704 152.277 395.331V390.627C152.278 390.254 152.426 389.897 152.69 389.633C152.954 389.37 153.311 389.221 153.684 389.221H159.434C159.807 389.221 160.165 389.37 160.428 389.633C160.692 389.897 160.841 390.254 160.841 390.627V395.331C160.841 395.704 160.692 396.061 160.428 396.325C160.165 396.589 159.807 396.737 159.434 396.737Z" fill="white"/>
<path d="M226.161 425.777H125.572C125.423 425.777 125.28 425.718 125.174 425.612C125.069 425.507 125.01 425.364 125.01 425.215C125.01 425.066 125.069 424.923 125.174 424.817C125.28 424.712 125.423 424.652 125.572 424.652H226.161C226.311 424.652 226.454 424.712 226.559 424.817C226.665 424.923 226.724 425.066 226.724 425.215C226.724 425.364 226.665 425.507 226.559 425.612C226.454 425.718 226.311 425.777 226.161 425.777Z" fill="#3F3D56"/>
<path d="M655.42 -9H362.002C360.885 -8.99898 359.813 -8.55378 359.023 -7.76212C358.233 -6.97047 357.788 -5.89705 357.787 -4.7775V194.397C357.788 195.517 358.233 196.59 359.023 197.382C359.813 198.173 360.885 198.619 362.002 198.62H655.42C656.03 198.62 656.632 198.487 657.185 198.231C657.739 197.976 658.23 197.602 658.625 197.138C658.659 197.102 658.69 197.063 658.717 197.022C658.969 196.714 659.173 196.369 659.322 196C659.534 195.492 659.642 194.947 659.64 194.397V-4.77748C659.639 -5.89783 659.194 -6.97186 658.403 -7.76362C657.611 -8.55537 656.539 -9.00006 655.42 -9ZM658.437 194.397C658.437 194.986 658.264 195.562 657.939 196.053C657.65 196.485 657.258 196.838 656.798 197.08C656.372 197.3 655.9 197.415 655.42 197.414H362.002C361.204 197.413 360.438 197.095 359.874 196.529C359.309 195.964 358.992 195.197 358.991 194.397V-4.77748C358.992 -5.57728 359.309 -6.34404 359.874 -6.90959C360.438 -7.47513 361.204 -7.79328 362.002 -7.79425H655.42C656.22 -7.79435 656.986 -7.47671 657.552 -6.91107C658.117 -6.34544 658.436 -5.57807 658.437 -4.77748V194.397Z" fill="#3F3D56"/>
<path d="M659.036 7.92355H358.388V9.13065H659.036V7.92355Z" fill="#3F3D56"/>
<path d="M368.63 3.67456C370.627 3.67456 372.245 2.05325 372.245 0.0532525C372.245 -1.94674 370.627 -3.56805 368.63 -3.56805C366.634 -3.56805 365.015 -1.94674 365.015 0.0532525C365.015 2.05325 366.634 3.67456 368.63 3.67456Z" fill="#3F3D56"/>
<path d="M379.024 3.67456C381.02 3.67456 382.639 2.05325 382.639 0.0532525C382.639 -1.94674 381.02 -3.56805 379.024 -3.56805C377.027 -3.56805 375.409 -1.94674 375.409 0.0532525C375.409 2.05325 377.027 3.67456 379.024 3.67456Z" fill="#3F3D56"/>
<path d="M389.417 3.67456C391.413 3.67456 393.032 2.05325 393.032 0.0532525C393.032 -1.94674 391.413 -3.56805 389.417 -3.56805C387.42 -3.56805 385.802 -1.94674 385.802 0.0532525C385.802 2.05325 387.42 3.67456 389.417 3.67456Z" fill="#3F3D56"/>
<path d="M623.384 95.4351H388.94C386.761 95.4327 384.672 94.5646 383.131 93.0214C381.591 91.4781 380.724 89.3857 380.722 87.2032V37.3272C380.724 35.1447 381.591 33.0523 383.131 31.5091C384.672 29.9658 386.761 29.0977 388.94 29.0952H623.384C625.563 29.0977 627.651 29.9658 629.192 31.5091C630.733 33.0523 631.599 35.1447 631.602 37.3272V87.2032C631.599 89.3857 630.733 91.4781 629.192 93.0214C627.651 94.5646 625.563 95.4327 623.384 95.4351ZM388.94 30.0637C387.017 30.0659 385.174 30.8319 383.815 32.1935C382.455 33.5552 381.691 35.4015 381.689 37.3272V87.2032C381.691 89.1289 382.455 90.9752 383.815 92.3369C385.174 93.6985 387.017 94.4645 388.94 94.4667H623.384C625.306 94.4645 627.149 93.6985 628.509 92.3369C629.868 90.9752 630.633 89.1289 630.635 87.2032V37.3272C630.633 35.4015 629.868 33.5552 628.509 32.1935C627.149 30.8319 625.306 30.0659 623.384 30.0637H388.94Z" fill="#F2F2F2"/>
<path d="M440.662 185.502H388.94C386.761 185.5 384.672 184.632 383.131 183.089C381.591 181.545 380.724 179.453 380.722 177.27V140.469C380.724 138.286 381.591 136.194 383.131 134.651C384.672 133.107 386.761 132.239 388.94 132.237H440.662C442.841 132.239 444.93 133.107 446.47 134.651C448.011 136.194 448.877 138.286 448.88 140.469V177.27C448.877 179.453 448.011 181.545 446.47 183.089C444.93 184.632 442.841 185.5 440.662 185.502ZM388.94 133.205C387.017 133.207 385.174 133.973 383.815 135.335C382.455 136.697 381.691 138.543 381.689 140.469V177.27C381.691 179.196 382.455 181.042 383.815 182.404C385.174 183.766 387.017 184.532 388.94 184.534H440.662C442.585 184.532 444.428 183.766 445.787 182.404C447.146 181.042 447.911 179.196 447.913 177.27V140.469C447.911 138.543 447.146 136.697 445.787 135.335C444.428 133.973 442.585 133.207 440.662 133.205H388.94Z" fill="#F2F2F2"/>
<path d="M623.384 185.502H571.661C569.482 185.5 567.394 184.632 565.853 183.089C564.313 181.545 563.446 179.453 563.444 177.27V140.469C563.446 138.286 564.313 136.194 565.853 134.651C567.394 133.107 569.482 132.239 571.661 132.237H623.384C625.563 132.239 627.651 133.107 629.192 134.651C630.733 136.194 631.599 138.286 631.602 140.469V177.27C631.599 179.453 630.733 181.545 629.192 183.089C627.651 184.632 625.563 185.5 623.384 185.502ZM571.661 133.205C569.739 133.207 567.896 133.973 566.536 135.335C565.177 136.697 564.412 138.543 564.41 140.469V177.27C564.412 179.196 565.177 181.042 566.536 182.404C567.896 183.766 569.739 184.532 571.661 184.534H623.384C625.306 184.532 627.149 183.766 628.509 182.404C629.868 181.042 630.633 179.196 630.635 177.27V140.469C630.633 138.543 629.868 136.697 628.509 135.335C627.149 133.973 625.306 133.207 623.384 133.205H571.661Z" fill="#F2F2F2"/>
<path d="M535.89 185.502H484.167C481.989 185.5 479.9 184.632 478.359 183.089C476.819 181.545 475.952 179.453 475.95 177.27V140.469C475.952 138.286 476.819 136.194 478.359 134.651C479.9 133.107 481.989 132.239 484.167 132.237H535.89C538.069 132.239 540.158 133.107 541.698 134.651C543.239 136.194 544.105 138.286 544.108 140.469V177.27C544.105 179.453 543.239 181.545 541.698 183.089C540.158 184.632 538.069 185.5 535.89 185.502ZM484.167 133.205C482.245 133.207 480.402 133.973 479.043 135.335C477.683 136.697 476.919 138.543 476.917 140.469V177.27C476.919 179.196 477.683 181.042 479.043 182.404C480.402 183.766 482.245 184.532 484.167 184.534H535.89C537.813 184.532 539.656 183.766 541.015 182.404C542.374 181.042 543.139 179.196 543.141 177.27V140.469C543.139 138.543 542.374 136.697 541.015 135.335C539.656 133.973 537.813 133.207 535.89 133.205H484.167Z" fill="#F2F2F2"/>
<path d="M383.598 31.3662L383.369 32.3068L631.003 93L631.233 92.0594L383.598 31.3662Z" fill="#F2F2F2"/>
<path d="M628.72 31.3513L383.371 92.2391L383.603 93.1792L628.952 32.2914L628.72 31.3513Z" fill="#F2F2F2"/>
<path d="M633.052 112.141H398.607C396.493 112.139 394.465 111.296 392.97 109.798C391.475 108.3 390.634 106.27 390.631 104.151V54.2752C390.634 52.1569 391.475 50.1261 392.97 48.6282C394.465 47.1303 396.493 46.2878 398.607 46.2854H633.052C635.166 46.2878 637.194 47.1304 638.689 48.6283C640.184 50.1261 641.025 52.157 641.028 54.2752V104.151C641.025 106.27 640.184 108.3 638.689 109.798C637.194 111.296 635.166 112.139 633.052 112.141Z" fill="white"/>
<path d="M479.192 134.423L478.597 135.187L540.551 183.6L541.146 182.836L479.192 134.423Z" fill="#F2F2F2"/>
<path d="M540.861 134.424L479.719 183.433L480.323 184.189L541.465 135.18L540.861 134.424Z" fill="#F2F2F2"/>
<path d="M383.963 134.424L383.369 135.187L445.323 183.6L445.918 182.836L383.963 134.424Z" fill="#F2F2F2"/>
<path d="M445.633 134.424L384.492 183.433L385.096 184.189L446.237 135.18L445.633 134.424Z" fill="#F2F2F2"/>
<path d="M566.686 134.423L566.091 135.187L628.045 183.599L628.64 182.836L566.686 134.423Z" fill="#F2F2F2"/>
<path d="M628.354 134.424L567.213 183.433L567.817 184.19L628.958 135.18L628.354 134.424Z" fill="#F2F2F2"/>
<path d="M543.141 220.609H491.418C489.304 220.607 487.276 219.764 485.781 218.267C484.286 216.769 483.445 214.738 483.442 212.619V175.818C483.445 173.699 484.286 171.669 485.781 170.171C487.276 168.673 489.304 167.83 491.418 167.828H543.141C545.256 167.83 547.283 168.673 548.778 170.171C550.274 171.669 551.115 173.699 551.117 175.818V212.619C551.115 214.738 550.274 216.769 548.778 218.267C547.283 219.764 545.256 220.607 543.141 220.609Z" fill="#561262"/>
<path d="M570.156 221.336H464.293C464.165 221.336 464.042 221.285 463.951 221.194C463.861 221.103 463.81 220.98 463.81 220.851C463.81 220.723 463.861 220.6 463.951 220.509C464.042 220.418 464.165 220.367 464.293 220.367H570.156C570.284 220.367 570.407 220.418 570.498 220.509C570.588 220.6 570.639 220.723 570.639 220.851C570.639 220.98 570.588 221.103 570.498 221.194C570.407 221.285 570.284 221.336 570.156 221.336Z" fill="#CCCCCC"/>
<path d="M524.024 191.555H510.489C509.464 191.555 508.48 191.147 507.755 190.421C507.03 189.694 506.622 188.709 506.622 187.681C506.622 186.654 507.03 185.669 507.755 184.942C508.48 184.216 509.464 183.808 510.489 183.808H524.024C525.05 183.808 526.034 184.216 526.759 184.942C527.484 185.669 527.892 186.654 527.892 187.681C527.892 188.709 527.484 189.694 526.759 190.421C526.034 191.147 525.05 191.555 524.024 191.555Z" fill="white"/>
<path d="M532.023 204.63H502.536C501.511 204.63 500.527 204.221 499.802 203.495C499.077 202.769 498.669 201.783 498.669 200.756C498.669 199.728 499.077 198.743 499.802 198.017C500.527 197.29 501.511 196.882 502.536 196.882H532.023C533.049 196.882 534.032 197.29 534.758 198.017C535.483 198.743 535.89 199.728 535.89 200.756C535.89 201.783 535.483 202.769 534.758 203.495C534.032 204.221 533.049 204.63 532.023 204.63Z" fill="white"/>
<path d="M448.88 192.524H397.157C395.043 192.521 393.015 191.679 391.52 190.181C390.025 188.683 389.184 186.652 389.181 184.534V147.732C389.184 145.614 390.025 143.583 391.52 142.085C393.015 140.587 395.043 139.745 397.157 139.742H448.88C450.995 139.745 453.022 140.587 454.517 142.085C456.012 143.583 456.854 145.614 456.856 147.732V184.534C456.854 186.652 456.012 188.683 454.517 190.181C453.022 191.679 450.995 192.521 448.88 192.524Z" fill="#561262"/>
<path d="M429.763 163.47H416.228C415.203 163.47 414.219 163.062 413.494 162.335C412.769 161.609 412.361 160.623 412.361 159.596C412.361 158.569 412.769 157.583 413.494 156.857C414.219 156.13 415.203 155.722 416.228 155.722H429.763C430.789 155.722 431.772 156.13 432.498 156.857C433.223 157.583 433.63 158.569 433.63 159.596C433.63 160.623 433.223 161.609 432.498 162.335C431.772 163.062 430.789 163.47 429.763 163.47Z" fill="white"/>
<path d="M437.762 176.544H408.275C407.249 176.544 406.266 176.136 405.541 175.41C404.815 174.683 404.408 173.698 404.408 172.67C404.408 171.643 404.815 170.658 405.541 169.931C406.266 169.205 407.249 168.796 408.275 168.796H437.762C438.788 168.796 439.771 169.205 440.496 169.931C441.222 170.658 441.629 171.643 441.629 172.67C441.629 173.698 441.222 174.683 440.496 175.41C439.771 176.136 438.788 176.544 437.762 176.544Z" fill="white"/>
<path d="M634.502 206.567H582.779C580.665 206.564 578.637 205.722 577.142 204.224C575.647 202.726 574.806 200.695 574.803 198.577V161.775C574.806 159.657 575.647 157.626 577.142 156.128C578.637 154.63 580.665 153.788 582.779 153.785H634.502C636.617 153.788 638.644 154.63 640.139 156.128C641.634 157.626 642.476 159.657 642.478 161.775V198.577C642.476 200.695 641.634 202.726 640.139 204.224C638.644 205.722 636.617 206.564 634.502 206.567Z" fill="#E6E6E6"/>
<path d="M615.385 177.513H601.85C600.825 177.513 599.841 177.104 599.116 176.378C598.391 175.652 597.983 174.666 597.983 173.639C597.983 172.611 598.391 171.626 599.116 170.9C599.841 170.173 600.825 169.765 601.85 169.765H615.385C616.411 169.765 617.394 170.173 618.12 170.9C618.845 171.626 619.252 172.611 619.252 173.639C619.252 174.666 618.845 175.652 618.12 176.378C617.394 177.104 616.411 177.513 615.385 177.513Z" fill="white"/>
<path d="M623.384 190.587H593.897C592.872 190.587 591.888 190.179 591.163 189.452C590.437 188.726 590.03 187.74 590.03 186.713C590.03 185.686 590.437 184.7 591.163 183.974C591.888 183.247 592.872 182.839 593.897 182.839H623.384C624.41 182.839 625.393 183.247 626.118 183.974C626.844 184.7 627.251 185.686 627.251 186.713C627.251 187.74 626.844 188.726 626.118 189.452C625.393 190.179 624.41 190.587 623.384 190.587Z" fill="white"/>
<path d="M661.517 207.293H555.654C555.526 207.293 555.403 207.242 555.312 207.151C555.222 207.06 555.171 206.937 555.171 206.809C555.171 206.68 555.222 206.557 555.312 206.466C555.403 206.375 555.526 206.324 555.654 206.324H661.517C661.645 206.324 661.768 206.375 661.858 206.466C661.949 206.557 662 206.68 662 206.809C662 206.937 661.949 207.06 661.858 207.151C661.768 207.242 661.645 207.293 661.517 207.293Z" fill="#CCCCCC"/>
<path d="M568.408 111.287V111.899H465.107V111.258L465.663 110.47L498.413 64.1546C498.565 63.9441 498.764 63.7727 498.995 63.6545C499.225 63.5362 499.481 63.4746 499.74 63.4746C499.999 63.4746 500.254 63.5362 500.485 63.6545C500.716 63.7727 500.915 63.9441 501.067 64.1546L523.027 95.212L538.66 73.2981C538.812 73.0886 539.011 72.9181 539.241 72.8005C539.471 72.6829 539.726 72.6216 539.985 72.6216C540.243 72.6216 540.498 72.6829 540.728 72.8005C540.958 72.9181 541.157 73.0886 541.309 73.2981L567.852 110.503L568.408 111.287Z" fill="#561262"/>
<path d="M464.893 80.471C471.533 80.471 476.917 75.0785 476.917 68.4265C476.917 61.7745 471.533 56.382 464.893 56.382C458.253 56.382 452.87 61.7745 452.87 68.4265C452.87 75.0785 458.253 80.471 464.893 80.471Z" fill="#561262"/>
<path d="M633.052 112.383H398.607C396.429 112.381 394.34 111.513 392.799 109.969C391.259 108.426 390.392 106.334 390.39 104.151V54.2754C390.392 52.0929 391.259 50.0005 392.799 48.4572C394.34 46.9139 396.429 46.0459 398.607 46.0434H633.052C635.23 46.0459 637.319 46.9139 638.86 48.4572C640.4 50.0005 641.267 52.0929 641.269 54.2754V104.151C641.267 106.334 640.4 108.426 638.86 109.969C637.319 111.513 635.23 112.381 633.052 112.383ZM398.607 47.0119C396.685 47.014 394.842 47.78 393.483 49.1417C392.123 50.5034 391.359 52.3496 391.356 54.2754V104.151C391.359 106.077 392.123 107.923 393.483 109.285C394.842 110.647 396.685 111.413 398.607 111.415H633.052C634.974 111.413 636.817 110.647 638.176 109.285C639.536 107.923 640.3 106.077 640.303 104.151V54.2754C640.3 52.3496 639.536 50.5034 638.176 49.1417C636.817 47.78 634.974 47.014 633.052 47.0119H398.607Z" fill="#3F3D56"/>
<path d="M683.441 533.867H342.75C339.844 533.864 337.058 532.709 335.003 530.656C332.948 528.602 331.792 525.818 331.789 522.914V318.356C331.791 316.229 332.638 314.189 334.144 312.685C335.649 311.181 337.69 310.334 339.819 310.332H686.233C688.399 310.334 690.475 311.195 692.007 312.726C693.538 314.256 694.4 316.331 694.402 318.495V522.914C694.399 525.818 693.243 528.602 691.188 530.656C689.133 532.709 686.347 533.864 683.441 533.867Z" fill="#F2F2F2"/>
<path d="M353.379 522.914H672.812C675.631 522.914 678.334 521.795 680.328 519.803C682.321 517.812 683.441 515.11 683.441 512.293V338.673C683.441 335.856 682.321 333.155 680.328 331.163C678.334 329.171 675.631 328.052 672.812 328.052H353.379C350.56 328.052 347.857 329.171 345.863 331.163C343.87 333.155 342.75 335.856 342.75 338.673V512.293C342.75 515.11 343.87 517.812 345.863 519.803C347.857 521.795 350.56 522.914 353.379 522.914Z" fill="white"/>
<path d="M694.25 317.73H331.635V312.154C331.639 309.24 332.8 306.447 334.862 304.387C336.925 302.328 339.721 301.17 342.636 301.168H683.248C686.164 301.17 688.96 302.328 691.022 304.387C693.085 306.447 694.245 309.24 694.25 312.154V317.73Z" fill="#561262"/>
<path d="M351.628 312.309C353.2 312.309 354.474 311.036 354.474 309.465C354.474 307.895 353.2 306.622 351.628 306.622C350.057 306.622 348.783 307.895 348.783 309.465C348.783 311.036 350.057 312.309 351.628 312.309Z" fill="white"/>
<path d="M362.429 312.309C364.001 312.309 365.275 311.036 365.275 309.465C365.275 307.895 364.001 306.622 362.429 306.622C360.858 306.622 359.584 307.895 359.584 309.465C359.584 311.036 360.858 312.309 362.429 312.309Z" fill="white"/>
<path d="M373.23 312.309C374.802 312.309 376.076 311.036 376.076 309.465C376.076 307.895 374.802 306.622 373.23 306.622C371.659 306.622 370.385 307.895 370.385 309.465C370.385 311.036 371.659 312.309 373.23 312.309Z" fill="white"/>
<path d="M523.063 485.262H494.497C492.824 485.26 491.219 484.595 490.036 483.413C488.853 482.23 488.188 480.628 488.186 478.956V450.411C488.188 448.74 488.853 447.137 490.036 445.954C491.219 444.772 492.824 444.107 494.497 444.105H523.063C524.736 444.107 526.34 444.772 527.523 445.954C528.706 447.137 529.372 448.74 529.374 450.411V478.956C529.372 480.628 528.706 482.23 527.523 483.413C526.34 484.595 524.736 485.26 523.063 485.262ZM494.497 445.433C493.176 445.434 491.909 445.959 490.975 446.893C490.041 447.826 489.516 449.092 489.514 450.411V478.956C489.516 480.276 490.041 481.541 490.975 482.474C491.909 483.408 493.176 483.933 494.497 483.934H523.063C524.384 483.933 525.65 483.408 526.584 482.474C527.518 481.541 528.044 480.276 528.045 478.956V450.411C528.044 449.092 527.518 447.826 526.584 446.893C525.65 445.959 524.384 445.434 523.063 445.433H494.497Z" fill="#CCCCCC"/>
<path d="M517.416 477.296H500.144C499.615 477.296 499.109 477.086 498.735 476.712C498.361 476.339 498.151 475.833 498.151 475.305V454.062C498.151 453.534 498.361 453.028 498.735 452.655C499.109 452.282 499.615 452.072 500.144 452.071H512.659C513.113 452.071 513.553 452.226 513.907 452.51L518.664 456.33C518.897 456.516 519.085 456.752 519.214 457.021C519.343 457.29 519.41 457.584 519.409 457.882V475.305C519.408 475.833 519.198 476.339 518.825 476.712C518.451 477.086 517.944 477.296 517.416 477.296ZM500.144 453.399C499.967 453.399 499.799 453.469 499.674 453.593C499.55 453.718 499.479 453.886 499.479 454.062V475.305C499.479 475.481 499.55 475.649 499.674 475.774C499.799 475.898 499.967 475.968 500.144 475.968H517.416C517.592 475.968 517.761 475.898 517.885 475.774C518.01 475.649 518.08 475.481 518.08 475.305V457.882C518.081 457.783 518.058 457.685 518.015 457.595C517.972 457.505 517.91 457.427 517.832 457.365L513.075 453.545C512.957 453.45 512.81 453.399 512.659 453.399H500.144Z" fill="#CCCCCC"/>
<path d="M514.094 461.364H503.465C503.289 461.364 503.12 461.295 502.995 461.17C502.871 461.046 502.801 460.877 502.801 460.701C502.801 460.525 502.871 460.356 502.995 460.231C503.12 460.107 503.289 460.037 503.465 460.037H514.094C514.271 460.037 514.439 460.107 514.564 460.231C514.689 460.356 514.759 460.525 514.759 460.701C514.759 460.877 514.689 461.046 514.564 461.17C514.439 461.295 514.271 461.364 514.094 461.364Z" fill="#CCCCCC"/>
<path d="M514.094 465.347H503.465C503.289 465.347 503.12 465.277 502.995 465.153C502.871 465.028 502.801 464.86 502.801 464.684C502.801 464.508 502.871 464.339 502.995 464.214C503.12 464.09 503.289 464.02 503.465 464.02H514.094C514.271 464.02 514.439 464.09 514.564 464.214C514.689 464.339 514.759 464.508 514.759 464.684C514.759 464.86 514.689 465.028 514.564 465.153C514.439 465.277 514.271 465.347 514.094 465.347Z" fill="#CCCCCC"/>
<path d="M514.094 469.33H503.465C503.289 469.33 503.12 469.26 502.995 469.136C502.871 469.011 502.801 468.843 502.801 468.666C502.801 468.49 502.871 468.322 502.995 468.197C503.12 468.073 503.289 468.003 503.465 468.003H514.094C514.271 468.003 514.439 468.073 514.564 468.197C514.689 468.322 514.759 468.49 514.759 468.666C514.759 468.843 514.689 469.011 514.564 469.136C514.439 469.26 514.271 469.33 514.094 469.33Z" fill="#CCCCCC"/>
<path d="M590.824 485.262H562.258C560.585 485.26 558.98 484.595 557.797 483.413C556.614 482.23 555.949 480.628 555.947 478.956V450.411C555.949 448.74 556.614 447.137 557.797 445.954C558.98 444.772 560.585 444.107 562.258 444.105H590.824C592.497 444.107 594.101 444.772 595.284 445.954C596.467 447.137 597.133 448.74 597.135 450.411V478.956C597.133 480.628 596.467 482.23 595.284 483.413C594.101 484.595 592.497 485.26 590.824 485.262ZM562.258 445.433C560.937 445.434 559.67 445.959 558.736 446.893C557.802 447.826 557.277 449.092 557.275 450.411V478.956C557.277 480.276 557.802 481.541 558.736 482.474C559.67 483.408 560.937 483.933 562.258 483.934H590.824C592.145 483.933 593.411 483.408 594.345 482.474C595.279 481.541 595.805 480.276 595.806 478.956V450.411C595.805 449.092 595.279 447.826 594.345 446.893C593.411 445.959 592.145 445.434 590.824 445.433H562.258Z" fill="#CCCCCC"/>
<path d="M585.841 471.986H567.24C566.712 471.985 566.205 471.775 565.832 471.402C565.458 471.028 565.248 470.522 565.247 469.994V459.373C565.248 458.845 565.458 458.339 565.832 457.965C566.205 457.592 566.712 457.382 567.24 457.382H585.841C586.37 457.382 586.876 457.592 587.25 457.965C587.624 458.339 587.834 458.845 587.834 459.373V469.994C587.834 470.522 587.624 471.028 587.25 471.402C586.876 471.775 586.37 471.985 585.841 471.986ZM567.24 458.709C567.064 458.709 566.895 458.779 566.771 458.904C566.646 459.028 566.576 459.197 566.576 459.373V469.994C566.576 470.17 566.646 470.339 566.771 470.463C566.895 470.588 567.064 470.658 567.24 470.658H585.841C586.017 470.658 586.186 470.588 586.311 470.463C586.435 470.339 586.505 470.17 586.506 469.994V459.373C586.505 459.197 586.435 459.028 586.311 458.904C586.186 458.779 586.017 458.709 585.841 458.709H567.24Z" fill="#CCCCCC"/>
<path d="M576.541 466.435C576.167 466.435 575.802 466.331 575.485 466.134L565.559 459.936C565.41 459.842 565.304 459.694 565.265 459.522C565.226 459.351 565.256 459.171 565.349 459.022C565.443 458.873 565.591 458.767 565.763 458.727C565.934 458.687 566.114 458.717 566.264 458.81L576.189 465.008C576.295 465.074 576.417 465.108 576.541 465.108C576.665 465.108 576.787 465.074 576.893 465.008L586.818 458.81C586.967 458.717 587.147 458.687 587.319 458.727C587.49 458.767 587.639 458.873 587.732 459.022C587.826 459.171 587.856 459.351 587.816 459.522C587.777 459.694 587.671 459.842 587.522 459.936L577.598 466.134C577.28 466.331 576.914 466.435 576.541 466.435Z" fill="#CCCCCC"/>
<path d="M455.302 485.262H426.736C425.063 485.26 423.458 484.595 422.275 483.413C421.092 482.23 420.427 480.628 420.425 478.956V450.411C420.427 448.74 421.092 447.137 422.275 445.954C423.458 444.772 425.063 444.107 426.736 444.105H455.302C456.975 444.107 458.579 444.772 459.762 445.954C460.945 447.137 461.611 448.74 461.613 450.411V478.956C461.611 480.628 460.945 482.23 459.762 483.413C458.579 484.595 456.975 485.26 455.302 485.262ZM426.736 445.433C425.415 445.434 424.148 445.959 423.214 446.893C422.28 447.826 421.755 449.092 421.753 450.411V478.956C421.755 480.276 422.28 481.541 423.214 482.474C424.148 483.408 425.415 483.933 426.736 483.934H455.302C456.623 483.933 457.889 483.408 458.823 482.474C459.757 481.541 460.283 480.276 460.284 478.956V450.411C460.283 449.092 459.757 447.826 458.823 446.893C457.889 445.959 456.623 445.434 455.302 445.433H426.736Z" fill="#CCCCCC"/>
<path d="M450.319 471.986H431.718C431.19 471.985 430.683 471.775 430.31 471.402C429.936 471.028 429.726 470.522 429.725 469.994V459.373C429.726 458.845 429.936 458.339 430.31 457.965C430.683 457.592 431.19 457.382 431.718 457.382H450.319C450.848 457.382 451.354 457.592 451.728 457.965C452.102 458.339 452.312 458.845 452.312 459.373V469.994C452.312 470.522 452.102 471.028 451.728 471.402C451.354 471.775 450.848 471.985 450.319 471.986ZM431.718 458.709C431.542 458.709 431.373 458.779 431.249 458.904C431.124 459.028 431.054 459.197 431.054 459.373V469.994C431.054 470.17 431.124 470.339 431.249 470.463C431.373 470.588 431.542 470.658 431.718 470.658H450.319C450.495 470.658 450.664 470.588 450.789 470.463C450.913 470.339 450.983 470.17 450.984 469.994V459.373C450.983 459.197 450.913 459.028 450.789 458.904C450.664 458.779 450.495 458.709 450.319 458.709H431.718Z" fill="#CCCCCC"/>
<path d="M447.371 471.986H434.002C433.769 471.986 433.54 471.924 433.338 471.808C433.136 471.691 432.968 471.524 432.851 471.322C432.735 471.12 432.673 470.891 432.673 470.658C432.673 470.425 432.735 470.196 432.852 469.994L436.878 463.024C436.995 462.822 437.163 462.655 437.365 462.538C437.567 462.422 437.796 462.36 438.029 462.36C438.262 462.36 438.492 462.422 438.694 462.538C438.896 462.655 439.063 462.822 439.18 463.024L441.781 467.526L443.287 464.918C443.404 464.716 443.572 464.548 443.774 464.432C443.976 464.315 444.205 464.254 444.438 464.254C444.671 464.254 444.901 464.315 445.103 464.432C445.304 464.548 445.472 464.716 445.589 464.918L448.522 469.994C448.638 470.196 448.7 470.425 448.7 470.658C448.7 470.891 448.638 471.12 448.522 471.322C448.405 471.524 448.237 471.691 448.035 471.808C447.833 471.924 447.604 471.986 447.371 471.986H447.371ZM447.371 470.658L444.438 465.581L442.356 469.185C442.298 469.286 442.214 469.37 442.113 469.428C442.012 469.486 441.897 469.517 441.781 469.517C441.664 469.517 441.55 469.486 441.449 469.428C441.347 469.37 441.264 469.286 441.205 469.185L438.029 463.688L434.002 470.658H447.371Z" fill="#CCCCCC"/>
<path d="M448.326 462.692C449.06 462.692 449.655 462.098 449.655 461.364C449.655 460.631 449.06 460.037 448.326 460.037C447.592 460.037 446.998 460.631 446.998 461.364C446.998 462.098 447.592 462.692 448.326 462.692Z" fill="#CCCCCC"/>
<path d="M697.33 410.512H495.376C492.47 410.508 489.683 409.353 487.628 407.3C485.574 405.247 484.418 402.463 484.414 399.559V356.411C484.418 353.507 485.574 350.723 487.628 348.669C489.683 346.616 492.47 345.461 495.376 345.458H697.33C700.236 345.461 703.022 346.616 705.077 348.669C707.132 350.723 708.288 353.507 708.291 356.411V399.559C708.288 402.463 707.132 405.247 705.077 407.3C703.022 409.353 700.236 410.508 697.33 410.512Z" fill="white"/>
<path d="M697.33 410.844H495.376C492.381 410.84 489.511 409.65 487.394 407.535C485.276 405.419 484.085 402.551 484.082 399.559V356.411C484.085 353.419 485.276 350.55 487.394 348.435C489.511 346.319 492.381 345.129 495.376 345.126H697.33C700.324 345.129 703.195 346.319 705.312 348.435C707.429 350.55 708.62 353.419 708.623 356.411V399.559C708.62 402.551 707.429 405.419 705.312 407.535C703.195 409.65 700.324 410.84 697.33 410.844ZM495.376 346.453C492.734 346.456 490.201 347.506 488.333 349.373C486.465 351.24 485.414 353.771 485.411 356.411V399.559C485.414 402.199 486.465 404.73 488.333 406.596C490.201 408.463 492.734 409.513 495.376 409.516H697.33C699.972 409.513 702.505 408.463 704.373 406.596C706.241 404.73 707.292 402.199 707.295 399.559V356.411C707.292 353.771 706.241 351.24 704.373 349.373C702.505 347.506 699.972 346.456 697.33 346.453H495.376Z" fill="#3F3D56"/>
<path d="M672.75 399.891H519.956C517.049 399.887 514.263 398.732 512.208 396.679C510.153 394.626 508.997 391.842 508.994 388.938V366.368C508.997 363.464 510.153 360.68 512.208 358.627C514.263 356.573 517.049 355.418 519.956 355.415H672.75C675.656 355.418 678.442 356.573 680.497 358.627C682.552 360.68 683.708 363.464 683.711 366.368V388.938C683.708 391.842 682.552 394.626 680.497 396.679C678.442 398.732 675.656 399.887 672.75 399.891Z" fill="#F2F2F2"/>
<path d="M552.836 387.726C560.076 387.726 565.945 381.861 565.945 374.627C565.945 367.393 560.076 361.529 552.836 361.529C545.596 361.529 539.728 367.393 539.728 374.627C539.728 381.861 545.596 387.726 552.836 387.726Z" fill="#FF6584"/>
<path d="M663.255 398.569L644.752 383.062L626.568 367.823C626.088 367.421 625.482 367.201 624.855 367.203C624.229 367.204 623.623 367.426 623.145 367.83L605.02 383.139L600.593 386.878L593.918 381.284L573.631 364.283C573.151 363.881 572.545 363.661 571.918 363.662C571.292 363.664 570.687 363.886 570.208 364.29L549.988 381.369L529.449 398.717C529.345 398.804 529.27 398.922 529.235 399.054C529.2 399.185 529.207 399.324 529.254 399.452C529.301 399.58 529.386 399.69 529.498 399.768C529.61 399.846 529.743 399.888 529.879 399.887L571.988 399.806L585.317 399.781L585.187 399.891L624.918 399.814L662.829 399.741C662.965 399.741 663.098 399.699 663.21 399.621C663.321 399.543 663.406 399.432 663.452 399.304C663.499 399.176 663.505 399.037 663.469 398.905C663.434 398.774 663.359 398.656 663.255 398.569Z" fill="#3F3D56"/>
<path d="M385.88 426.112H357.314C355.641 426.11 354.037 425.445 352.854 424.262C351.67 423.08 351.005 421.477 351.003 419.805V391.261C351.005 389.589 351.67 387.986 352.854 386.804C354.037 385.622 355.641 384.957 357.314 384.955H385.88C387.553 384.957 389.157 385.622 390.34 386.804C391.524 387.986 392.189 389.589 392.191 391.261V419.805C392.189 421.477 391.524 423.08 390.34 424.262C389.157 425.445 387.553 426.11 385.88 426.112Z" fill="white"/>
<path d="M385.88 426.112H357.314C355.641 426.11 354.037 425.445 352.854 424.262C351.67 423.08 351.005 421.477 351.003 419.805V391.261C351.005 389.589 351.67 387.986 352.854 386.804C354.037 385.622 355.641 384.957 357.314 384.955H385.88C387.553 384.957 389.157 385.622 390.34 386.804C391.524 387.986 392.189 389.589 392.191 391.261V419.805C392.189 421.477 391.524 423.08 390.34 424.262C389.157 425.445 387.553 426.11 385.88 426.112ZM357.314 386.282C355.993 386.284 354.727 386.809 353.793 387.742C352.858 388.676 352.333 389.941 352.332 391.261V419.805C352.333 421.125 352.858 422.391 353.793 423.324C354.727 424.257 355.993 424.782 357.314 424.784H385.88C387.201 424.782 388.467 424.257 389.401 423.324C390.335 422.391 390.861 421.125 390.862 419.805V391.261C390.861 389.941 390.335 388.676 389.401 387.742C388.467 386.809 387.201 386.284 385.88 386.282H357.314Z" fill="#3F3D56"/>
<path d="M380.897 414.495H362.296C361.768 414.494 361.261 414.284 360.888 413.911C360.514 413.537 360.304 413.031 360.303 412.503V398.563C360.304 398.035 360.514 397.529 360.888 397.156C361.261 396.782 361.768 396.572 362.296 396.572H367.533C367.873 396.57 368.209 396.657 368.506 396.823C368.803 396.989 369.053 397.229 369.23 397.519L370.691 399.891H380.897C381.426 399.891 381.932 400.101 382.306 400.475C382.68 400.848 382.89 401.354 382.89 401.882V412.503C382.89 413.031 382.68 413.537 382.306 413.911C381.932 414.284 381.426 414.494 380.897 414.495Z" fill="#561262"/>
<g clip-path="url(#clip0)">
<path d="M324.603 -87.3499H-58.4967C-59.9559 -87.3485 -61.3549 -86.7688 -62.3867 -85.738C-63.4185 -84.7071 -63.9987 -83.3094 -64 -81.8516V177.502C-63.9987 178.96 -63.4185 180.357 -62.3867 181.388C-61.3549 182.419 -59.9559 182.999 -58.4967 183H324.603C325.399 183 326.185 182.828 326.908 182.494C327.63 182.161 328.272 181.676 328.788 181.071C328.832 181.023 328.872 180.973 328.908 180.919C329.236 180.518 329.502 180.069 329.697 179.589C329.974 178.928 330.115 178.218 330.113 177.502V-81.8515C330.112 -83.3104 329.53 -84.7089 328.497 -85.7399C327.464 -86.7709 326.064 -87.3499 324.603 -87.3499ZM328.542 177.502C328.542 178.269 328.316 179.019 327.892 179.658C327.514 180.221 327.002 180.68 326.402 180.995C325.846 181.282 325.229 181.431 324.603 181.43H-58.4967C-59.5391 181.429 -60.5385 181.014 -61.2756 180.278C-62.0127 179.542 -62.4274 178.543 -62.4286 177.502V-81.8515C-62.4274 -82.893 -62.0127 -83.8914 -61.2756 -84.6278C-60.5385 -85.3642 -59.5391 -85.7785 -58.4967 -85.7798H324.603C325.647 -85.7799 326.648 -85.3663 327.386 -84.6298C328.125 -83.8932 328.54 -82.894 328.542 -81.8515V177.502Z" fill="#3F3D56"/>
<path d="M51.0088 67.3022H-24.7276C-27.5722 67.299 -30.2994 66.1687 -32.3109 64.1591C-34.3223 62.1496 -35.4537 59.425 -35.4569 56.5831V21.2729C-35.4537 18.431 -34.3223 15.7064 -32.3109 13.6969C-30.2994 11.6873 -27.5722 10.5569 -24.7276 10.5537H51.0088C53.8534 10.5569 56.5806 11.6873 58.5921 13.6969C60.6035 15.7064 61.7349 18.431 61.7381 21.2729V56.5831C61.7349 59.425 60.6035 62.1496 58.5921 64.1591C56.5806 66.1687 53.8534 67.299 51.0088 67.3022Z" fill="#561262"/>
<path d="M170.925 67.3022H95.1885C92.3439 67.299 89.6166 66.1687 87.6052 64.1592C85.5937 62.1496 84.4623 59.425 84.4591 56.5831V21.2729C84.4623 18.431 85.5937 15.7064 87.6052 13.6968C89.6166 11.6873 92.3439 10.5569 95.1885 10.5537H170.925C173.769 10.5569 176.497 11.6873 178.508 13.6969C180.52 15.7064 181.651 18.431 181.654 21.2729V56.5831C181.651 59.425 180.52 62.1496 178.508 64.1591C176.497 66.1687 173.769 67.299 170.925 67.3022Z" fill="#561262"/>
<path d="M290.841 67.3022H215.104C212.26 67.299 209.533 66.1687 207.521 64.1591C205.51 62.1496 204.378 59.425 204.375 56.5831V21.2729C204.378 18.431 205.51 15.7064 207.521 13.6969C209.533 11.6873 212.26 10.5569 215.104 10.5537H290.841C293.686 10.5569 296.413 11.6873 298.424 13.6969C300.436 15.7064 301.567 18.431 301.57 21.2729V56.5831C301.567 59.425 300.436 62.1496 298.424 64.1591C296.413 66.1687 293.686 67.299 290.841 67.3022Z" fill="#561262"/>
<path d="M51.0088 141.706H-24.7276C-27.5722 141.703 -30.2994 140.572 -32.3109 138.563C-34.3223 136.553 -35.4537 133.829 -35.4569 130.987V95.6765C-35.4537 92.8346 -34.3223 90.11 -32.3109 88.1004C-30.2994 86.0909 -27.5722 84.9605 -24.7276 84.9573H51.0088C53.8534 84.9605 56.5806 86.0909 58.5921 88.1004C60.6035 90.11 61.7349 92.8346 61.7381 95.6765V130.987C61.7349 133.829 60.6035 136.553 58.5921 138.563C56.5806 140.572 53.8534 141.703 51.0088 141.706Z" fill="#561262"/>
<path d="M170.925 141.706H95.1885C92.3439 141.703 89.6166 140.572 87.6052 138.563C85.5937 136.553 84.4623 133.829 84.4591 130.987V95.6765C84.4623 92.8346 85.5937 90.11 87.6052 88.1004C89.6166 86.0909 92.3439 84.9605 95.1885 84.9573H170.925C173.769 84.9605 176.497 86.0909 178.508 88.1004C180.52 90.11 181.651 92.8346 181.654 95.6765V130.987C181.651 133.829 180.52 136.553 178.508 138.563C176.497 140.572 173.769 141.703 170.925 141.706Z" fill="#561262"/>
<path d="M290.466 141.749H214.729C211.885 141.745 209.158 140.615 207.146 138.605C205.135 136.596 204.003 133.871 204 131.029V95.7192C204.003 92.8772 205.135 90.1527 207.146 88.1431C209.158 86.1336 211.885 85.0032 214.729 85H290.466C293.31 85.0032 296.038 86.1336 298.049 88.1431C300.06 90.1527 301.192 92.8772 301.195 95.7192V131.029C301.192 133.871 300.06 136.596 298.049 138.605C296.038 140.615 293.31 141.745 290.466 141.749Z" fill="#561262"/>
</g>
</g>
<defs>
<clipPath id="clip0">
<rect width="395" height="271" fill="white" transform="translate(-64 -88)"/>
</clipPath>
</defs>
</svg>
